<svg xmlns="http://www.w3.org/2000/svg" xmlns:xlink="http://www.w3.org/1999/xlink" width="500" zoomAndPan="magnify" viewBox="0 0 375 374.999991" height="500" preserveAspectRatio="xMidYMid meet" version="1.0"><defs><clipPath id="22534cb33f"><path d="M 7.722656 7.722656 L 366.972656 7.722656 L 366.972656 366.972656 L 7.722656 366.972656 Z M 7.722656 7.722656 " clip-rule="nonzero"/></clipPath></defs><path fill="#213220" d="M 204.597656 133.476562 L 204.597656 162.683594 L 241.371094 162.683594 L 236.226562 202.632812 L 204.597656 202.632812 L 204.597656 294.183594 L 164.496094 294.183594 L 164.496094 202.632812 L 130.148438 202.632812 L 130.148438 162.683594 L 164.496094 162.683594 L 164.496094 133.476562 C 164.496094 101.847656 190.070312 80.511719 221.699219 80.511719 C 235.621094 80.511719 244.398438 82.628906 244.398438 82.628906 L 244.398438 116.375 L 221.699219 116.375 C 212.316406 116.375 204.597656 124.09375 204.597656 133.476562 Z M 204.597656 133.476562 " fill-opacity="1" fill-rule="nonzero"/><g clip-path="url(#22534cb33f)"><path fill="#213220" d="M 187.347656 366.972656 C 88.378906 366.972656 7.722656 286.46875 7.722656 187.347656 C 7.722656 88.230469 88.378906 7.722656 187.347656 7.722656 C 286.46875 7.722656 366.972656 88.378906 366.972656 187.347656 C 366.972656 286.316406 286.46875 366.972656 187.347656 366.972656 Z M 187.347656 17.558594 C 93.675781 17.558594 17.558594 93.675781 17.558594 187.347656 C 17.558594 281.019531 93.675781 357.136719 187.347656 357.136719 C 281.019531 357.136719 357.136719 281.019531 357.136719 187.347656 C 357.136719 93.675781 281.019531 17.558594 187.347656 17.558594 Z M 187.347656 17.558594 " fill-opacity="1" fill-rule="nonzero"/></g></svg>