<svg xmlns="http://www.w3.org/2000/svg" xmlns:xlink="http://www.w3.org/1999/xlink" width="500" zoomAndPan="magnify" viewBox="0 0 375 374.999991" height="500" preserveAspectRatio="xMidYMid meet" version="1.0"><defs><clipPath id="3e29384e9b"><path d="M 8.273438 4.121094 L 370.523438 4.121094 L 370.523438 366.371094 L 8.273438 366.371094 Z M 8.273438 4.121094 " clip-rule="nonzero"/></clipPath></defs><path fill="#213220" d="M 280.800781 140.84375 C 278.96875 129.09375 268.898438 120.703125 257.148438 120.703125 L 121.800781 120.703125 C 110.050781 120.703125 99.980469 129.246094 98.148438 140.84375 C 96.472656 151.675781 94.792969 166.785156 94.792969 185.246094 C 94.945312 203.710938 96.472656 218.816406 98.148438 229.652344 C 99.980469 241.246094 110.050781 249.792969 121.800781 249.792969 L 256.996094 249.792969 C 268.746094 249.792969 278.96875 241.246094 280.648438 229.652344 C 282.324219 218.664062 284.003906 203.710938 284.003906 185.246094 C 284.003906 166.785156 282.480469 151.675781 280.800781 140.84375 Z M 169.410156 211.035156 L 169.410156 159.613281 L 217.324219 185.398438 Z M 169.410156 211.035156 " fill-opacity="1" fill-rule="nonzero"/><g clip-path="url(#3e29384e9b)"><path fill="#213220" d="M 189.398438 366.371094 C 89.605469 366.371094 8.273438 285.195312 8.273438 185.246094 C 8.273438 85.453125 89.605469 4.121094 189.398438 4.121094 C 289.191406 4.121094 370.523438 85.453125 370.523438 185.246094 C 370.523438 285.195312 289.34375 366.371094 189.398438 366.371094 Z M 189.398438 14.039062 C 94.945312 14.039062 18.191406 90.792969 18.191406 185.246094 C 18.191406 279.699219 94.945312 356.453125 189.398438 356.453125 C 283.851562 356.453125 360.605469 279.699219 360.605469 185.246094 C 360.605469 90.792969 283.851562 14.039062 189.398438 14.039062 Z M 189.398438 14.039062 " fill-opacity="1" fill-rule="nonzero"/></g></svg>