<svg xmlns="http://www.w3.org/2000/svg" xmlns:xlink="http://www.w3.org/1999/xlink" width="500" zoomAndPan="magnify" viewBox="0 0 375 374.999991" height="500" preserveAspectRatio="xMidYMid meet" version="1.0"><defs><g/><clipPath id="c9299e031a"><path d="M 24.324219 24.324219 L 350.574219 24.324219 L 350.574219 350.574219 L 24.324219 350.574219 Z M 24.324219 24.324219 " clip-rule="nonzero"/></clipPath></defs><g clip-path="url(#c9299e031a)"><path fill="#213220" d="M 327.679688 252.636719 C 334.195312 254.378906 340.976562 250.480469 342.71875 243.960938 L 350.160156 216.148438 C 351.917969 209.632812 348.003906 202.851562 341.484375 201.109375 C 327.769531 196.71875 317.816406 184.824219 315.9375 170.539062 C 314.058594 156.257812 320.589844 142.1875 332.703125 134.390625 C 338.542969 131.015625 340.574219 123.464844 337.199219 117.609375 L 322.808594 92.679688 C 319.433594 86.824219 311.882812 84.804688 306.027344 88.179688 C 293.222656 94.773438 277.769531 93.386719 266.351562 84.636719 C 254.933594 75.867188 249.585938 61.292969 252.652344 47.222656 C 254.394531 40.707031 250.496094 33.925781 243.960938 32.183594 L 216.164062 24.726562 C 209.648438 22.984375 202.867188 26.882812 201.125 33.402344 C 196.734375 47.117188 184.839844 57.070312 170.554688 58.949219 C 156.285156 60.828125 142.203125 54.296875 134.40625 42.183594 C 131.03125 36.328125 123.480469 34.3125 117.625 37.683594 L 92.695312 52.078125 C 86.855469 55.453125 84.820312 63.003906 88.195312 68.84375 C 94.789062 81.648438 93.417969 97.101562 84.652344 108.535156 C 75.882812 119.953125 61.308594 125.300781 47.238281 122.234375 C 40.722656 120.476562 33.941406 124.390625 32.199219 130.910156 L 24.742188 158.722656 C 23 165.238281 26.898438 172.019531 33.433594 173.761719 C 47.144531 178.152344 57.101562 190.0625 58.980469 204.332031 C 60.859375 218.601562 54.328125 232.683594 42.214844 240.480469 C 36.359375 243.855469 34.339844 251.40625 37.714844 257.246094 L 52.109375 282.175781 C 55.484375 288.03125 63.03125 290.050781 68.871094 286.675781 C 81.675781 280.082031 97.132812 281.453125 108.566406 290.21875 C 119.984375 298.988281 125.332031 313.5625 122.265625 327.632812 C 120.523438 334.148438 124.421875 340.929688 130.9375 342.671875 L 158.753906 350.128906 C 165.269531 351.871094 172.050781 347.972656 173.792969 341.4375 C 178.183594 327.726562 190.09375 317.769531 204.363281 315.890625 C 218.628906 314.011719 232.714844 320.542969 240.496094 332.65625 C 243.871094 338.511719 251.421875 340.53125 257.277344 337.15625 L 282.207031 322.761719 C 288.0625 319.386719 290.082031 311.839844 286.707031 306 C 280.113281 293.195312 281.5 277.738281 290.25 266.304688 C 299.019531 254.886719 313.59375 249.539062 327.664062 252.605469 Z M 95.007812 162.679688 L 95.113281 162.265625 L 95.222656 161.847656 L 95.34375 161.433594 L 95.46875 161.015625 L 95.589844 160.601562 L 95.714844 160.183594 L 95.839844 159.769531 L 95.960938 159.351562 L 96.085938 158.9375 L 96.207031 158.519531 L 96.332031 158.105469 L 96.46875 157.703125 L 96.609375 157.304688 L 96.746094 156.902344 L 96.886719 156.503906 L 97.023438 156.101562 L 97.164062 155.703125 L 97.316406 155.300781 L 97.457031 154.898438 L 97.59375 154.5 L 97.75 154.097656 L 97.902344 153.699219 L 98.058594 153.296875 L 98.210938 152.898438 C 98.320312 152.636719 98.410156 152.371094 98.519531 152.109375 L 98.671875 151.710938 L 98.828125 151.324219 L 98.980469 150.941406 L 99.136719 150.554688 L 99.289062 150.167969 C 99.398438 149.90625 99.503906 149.644531 99.628906 149.398438 L 99.796875 149.015625 C 99.90625 148.75 100.027344 148.503906 100.136719 148.242188 L 100.308594 147.859375 L 100.476562 147.472656 L 100.660156 147.085938 C 100.769531 146.839844 100.890625 146.578125 101.015625 146.332031 L 101.199219 145.960938 L 101.386719 145.59375 L 101.753906 144.851562 L 101.941406 144.484375 L 102.308594 143.742188 L 102.511719 143.375 L 102.695312 143.003906 C 102.894531 142.632812 103.082031 142.265625 103.28125 141.910156 C 103.417969 141.664062 103.542969 141.417969 103.679688 141.1875 L 103.882812 140.816406 L 104.082031 140.460938 C 104.21875 140.214844 104.359375 139.984375 104.480469 139.738281 L 104.699219 139.382812 L 104.914062 139.027344 L 105.128906 138.675781 L 105.34375 138.320312 L 105.5625 137.964844 C 109.242188 131.878906 113.558594 126.269531 118.398438 121.246094 C 130.953125 108.195312 147.011719 98.917969 164.59375 94.574219 C 171.371094 92.894531 178.382812 91.957031 185.5 91.816406 C 194.316406 91.648438 203.300781 92.679688 212.234375 95.082031 C 221.171875 97.472656 229.476562 101.0625 237.027344 105.621094 C 243.113281 109.304688 248.722656 113.621094 253.746094 118.457031 C 266.796875 131.015625 276.074219 147.074219 280.417969 164.652344 C 282.097656 171.433594 283.039062 178.445312 283.179688 185.5625 L 283.179688 188.890625 L 283.164062 189.308594 L 283.148438 190.140625 C 283.132812 190.554688 283.117188 190.972656 283.101562 191.386719 L 283.085938 191.804688 L 283.070312 192.21875 L 283.054688 192.636719 L 283.023438 193.050781 L 282.992188 193.46875 L 282.960938 193.882812 L 282.929688 194.300781 L 282.902344 194.714844 L 282.871094 195.132812 C 282.839844 195.410156 282.824219 195.6875 282.792969 195.964844 L 282.746094 196.378906 L 282.699219 196.796875 L 282.652344 197.210938 C 282.625 197.488281 282.59375 197.765625 282.5625 198.042969 L 282.515625 198.460938 L 282.46875 198.875 L 282.40625 199.292969 L 282.359375 199.707031 L 282.300781 200.125 L 282.238281 200.539062 L 282.175781 200.957031 L 282.113281 201.371094 C 282.070312 201.648438 282.023438 201.925781 281.992188 202.203125 L 281.929688 202.621094 L 281.867188 203.035156 L 281.792969 203.453125 L 281.714844 203.867188 L 281.636719 204.285156 L 281.558594 204.699219 L 281.484375 205.117188 L 281.40625 205.53125 L 281.328125 205.949219 L 281.25 206.363281 L 281.160156 206.78125 L 281.066406 207.195312 L 280.972656 207.613281 L 280.882812 208.027344 L 280.789062 208.445312 L 280.695312 208.859375 L 280.605469 209.277344 L 280.511719 209.691406 L 280.40625 210.109375 L 280.296875 210.523438 L 280.1875 210.941406 L 280.082031 211.359375 L 279.972656 211.773438 L 279.863281 212.191406 L 279.757812 212.605469 L 279.648438 213.023438 L 279.542969 213.4375 L 279.417969 213.855469 L 279.292969 214.269531 L 279.171875 214.6875 L 279.046875 215.101562 L 278.925781 215.519531 L 278.800781 215.933594 L 278.679688 216.335938 L 278.539062 216.75 L 278.417969 217.152344 L 278.277344 217.550781 L 278.140625 217.953125 L 278 218.367188 L 277.863281 218.769531 L 277.722656 219.167969 L 277.585938 219.570312 L 277.445312 219.972656 L 277.292969 220.371094 L 277.136719 220.773438 L 276.984375 221.171875 L 276.828125 221.574219 L 276.675781 221.972656 C 276.566406 222.234375 276.476562 222.496094 276.367188 222.761719 L 276.214844 223.144531 L 276.058594 223.546875 L 275.90625 223.945312 L 275.75 224.332031 L 275.597656 224.714844 L 275.425781 225.101562 L 275.257812 225.488281 L 275.089844 225.871094 C 274.980469 226.117188 274.871094 226.382812 274.75 226.644531 L 274.578125 227.027344 L 274.410156 227.414062 L 274.242188 227.796875 C 274.117188 228.046875 273.996094 228.308594 273.886719 228.554688 L 273.703125 228.9375 L 273.515625 229.308594 L 273.332031 229.679688 L 273.148438 230.046875 L 272.960938 230.417969 L 272.777344 230.789062 L 272.59375 231.15625 L 272.390625 231.527344 L 272.207031 231.898438 C 272.023438 232.265625 271.820312 232.636719 271.621094 233.007812 C 271.484375 233.253906 271.359375 233.5 271.21875 233.730469 L 270.820312 234.441406 C 270.679688 234.6875 270.542969 234.917969 270.417969 235.164062 L 270.203125 235.519531 L 269.988281 235.871094 L 269.773438 236.226562 L 269.554688 236.582031 L 269.339844 236.9375 C 265.65625 243.023438 261.34375 248.617188 256.503906 253.65625 C 243.945312 266.707031 227.890625 275.980469 210.308594 280.328125 C 203.53125 282.007812 196.535156 282.945312 189.414062 283.085938 C 180.601562 283.269531 171.617188 282.222656 162.679688 279.820312 C 153.746094 277.414062 145.4375 273.839844 137.886719 269.277344 C 131.800781 265.597656 126.191406 261.28125 121.171875 256.445312 C 108.117188 243.886719 98.84375 227.828125 94.496094 210.246094 C 92.816406 203.46875 91.878906 196.457031 91.738281 189.339844 L 91.738281 187.257812 C 91.738281 186.980469 91.738281 186.703125 91.738281 186.425781 L 91.738281 186.011719 L 91.753906 185.59375 C 91.753906 185.316406 91.753906 185.039062 91.769531 184.761719 C 91.785156 184.347656 91.800781 183.929688 91.816406 183.515625 L 91.832031 183.097656 L 91.847656 182.683594 L 91.878906 182.265625 L 91.894531 181.851562 L 91.925781 181.433594 L 91.953125 181.019531 L 92.015625 180.183594 L 92.046875 179.769531 C 92.078125 179.492188 92.09375 179.214844 92.125 178.9375 L 92.15625 178.519531 L 92.203125 178.105469 L 92.246094 177.6875 C 92.277344 177.410156 92.308594 177.132812 92.339844 176.855469 L 92.386719 176.441406 C 92.417969 176.164062 92.449219 175.886719 92.496094 175.609375 L 92.539062 175.191406 L 92.601562 174.777344 L 92.664062 174.359375 L 92.726562 173.945312 L 92.785156 173.527344 C 92.832031 173.25 92.863281 172.972656 92.910156 172.695312 L 92.972656 172.28125 L 93.035156 171.863281 L 93.109375 171.449219 L 93.1875 171.03125 L 93.265625 170.617188 L 93.339844 170.199219 L 93.417969 169.785156 L 93.496094 169.367188 L 93.574219 168.953125 L 93.648438 168.535156 L 93.742188 168.121094 L 93.835938 167.703125 L 93.925781 167.289062 L 94.019531 166.871094 L 94.113281 166.457031 L 94.203125 166.039062 L 94.3125 165.625 L 94.40625 165.207031 L 94.511719 164.792969 L 94.621094 164.375 L 94.730469 163.960938 L 94.835938 163.542969 L 94.945312 163.128906 L 95.050781 162.710938 Z M 95.007812 162.679688 " fill-opacity="1" fill-rule="evenodd"/></g><path fill="#028476" d="M 234.792969 136.734375 L 243.253906 128.273438 C 233.761719 119.320312 221.988281 112.527344 208.507812 108.90625 C 165.132812 97.285156 120.539062 123.019531 108.90625 166.410156 C 107.824219 170.449219 107.054688 174.5 106.609375 178.535156 C 118.179688 135.667969 162.296875 110.261719 205.195312 121.753906 C 216.351562 124.746094 226.320312 129.9375 234.777344 136.734375 Z M 234.792969 136.734375 " fill-opacity="1" fill-rule="evenodd"/><path fill="#028476" d="M 200.664062 194.546875 C 212.992188 188.089844 230.757812 168.320312 253.976562 135.238281 C 219.109375 154.097656 197.582031 169.230469 189.355469 180.648438 C 180.832031 192.496094 187.660156 201.355469 200.664062 194.546875 Z M 200.664062 194.546875 " fill-opacity="1" fill-rule="evenodd"/><g fill="#e9ede9" fill-opacity="1"><g transform="translate(192.85361, 293.478043)"><g><path d="M -2.261719 -0.164062 L -5.695312 -0.410156 L -6.730469 13.9375 L -12.117188 -0.871094 L -14.496094 -1.042969 L -21.921875 12.84375 L -20.886719 -1.503906 L -24.324219 -1.75 L -25.832031 19.199219 L -22.152344 19.460938 L -13.648438 3.5625 L -7.476562 20.519531 L -3.769531 20.785156 Z M -2.261719 -0.164062 "/></g></g></g><g fill="#e9ede9" fill-opacity="1"><g transform="translate(166.936414, 291.519313)"><g><path d="M -24.691406 3.339844 C -26.5625 9.339844 -23.359375 14.992188 -17.648438 16.777344 C -11.996094 18.542969 -6.085938 15.734375 -4.210938 9.734375 C -2.328125 3.707031 -5.589844 -1.96875 -11.246094 -3.734375 C -16.957031 -5.515625 -22.808594 -2.691406 -24.691406 3.339844 Z M -7.585938 8.679688 C -9 13.207031 -12.765625 15.136719 -16.746094 13.890625 C -20.726562 12.648438 -22.730469 8.921875 -21.316406 4.394531 C -19.902344 -0.136719 -16.117188 -2.121094 -12.136719 -0.875 C -8.15625 0.367188 -6.171875 4.152344 -7.585938 8.679688 Z M -7.585938 8.679688 "/></g></g></g><g fill="#e9ede9" fill-opacity="1"><g transform="translate(144.701332, 284.270748)"><g><path d="M -23.441406 11.28125 L -11.238281 17.808594 L -9.828125 15.167969 L -18.40625 10.578125 L -2.601562 1.660156 L -1.332031 -0.710938 L -13.535156 -7.238281 L -14.949219 -4.601562 L -6.339844 0 L -22.171875 8.910156 Z M -23.441406 11.28125 "/></g></g></g><g fill="#e9ede9" fill-opacity="1"><g transform="translate(129.687913, 275.914273)"><g><path d="M -1.855469 -1.300781 L -4.675781 -3.28125 L -16.734375 13.914062 L -13.914062 15.894531 Z M -1.855469 -1.300781 "/></g></g></g><g fill="#e9ede9" fill-opacity="1"><g transform="translate(122.693041, 271.151389)"><g><path d="M -15.511719 14.335938 L -1.707031 -1.488281 L -9.65625 -8.421875 L -11.484375 -6.328125 L -6.132812 -1.660156 L -18.109375 12.074219 Z M -15.511719 14.335938 "/></g></g></g><g fill="#e9ede9" fill-opacity="1"><g transform="translate(112.398443, 262.150936)"><g><path d="M -17.230469 12.222656 L -1.5 -1.699219 L -8.492188 -9.59375 L -10.574219 -7.753906 L -5.867188 -2.433594 L -19.511719 9.640625 Z M -17.230469 12.222656 "/></g></g></g><g fill="#e9ede9" fill-opacity="1"><g transform="translate(103.283749, 252.325478)"><g><path d="M -8.761719 -13.910156 L -10.695312 -16.976562 L -24.480469 0.601562 L -22.355469 3.976562 L -0.546875 -0.871094 L -2.464844 -3.910156 L -6.902344 -2.902344 L -11.589844 -10.34375 Z M -13.449219 -8.027344 L -9.792969 -2.222656 L -19.886719 0.0664062 Z M -13.449219 -8.027344 "/></g></g></g><g fill="#e9ede9" fill-opacity="1"><g transform="translate(92.378426, 234.138885)"><g/></g></g><g fill="#e9ede9" fill-opacity="1"><g transform="translate(88.580274, 227.098933)"><g><path d="M -23.695312 -5.601562 C -22.082031 0.0976562 -16.5 3.511719 -10.453125 1.796875 C -4.375 0.078125 -1.4375 -5.75 -3.054688 -11.445312 C -4.59375 -16.882812 -9.695312 -19.710938 -14.550781 -18.996094 L -17.136719 -18.261719 L -13.984375 -7.125 L -11.339844 -7.875 L -13.488281 -15.464844 C -9.945312 -15.933594 -7.085938 -14.261719 -6.046875 -10.597656 C -4.910156 -6.585938 -6.96875 -2.863281 -11.414062 -1.605469 C -15.863281 -0.34375 -19.535156 -2.445312 -20.671875 -6.457031 C -21.355469 -8.871094 -20.882812 -11.078125 -19.152344 -12.730469 L -20.28125 -16.714844 C -23.796875 -14.050781 -24.890625 -9.816406 -23.695312 -5.601562 Z M -23.695312 -5.601562 "/></g></g></g><g fill="#e9ede9" fill-opacity="1"><g transform="translate(82.284545, 205.147469)"><g><path d="M -11.867188 -21.90625 C -18.140625 -21.535156 -22.292969 -16.535156 -21.941406 -10.5625 C -21.589844 -4.648438 -16.867188 -0.117188 -10.59375 -0.492188 C -4.289062 -0.863281 -0.140625 -5.925781 -0.492188 -11.835938 C -0.847656 -17.808594 -5.5625 -22.28125 -11.867188 -21.90625 Z M -10.804688 -4.019531 C -15.539062 -3.738281 -18.675781 -6.578125 -18.921875 -10.742188 C -19.171875 -14.90625 -16.394531 -18.097656 -11.65625 -18.378906 C -6.921875 -18.660156 -3.726562 -15.824219 -3.476562 -11.660156 C -3.230469 -7.496094 -6.066406 -4.300781 -10.804688 -4.019531 Z M -10.804688 -4.019531 "/></g></g></g><g fill="#e9ede9" fill-opacity="1"><g transform="translate(80.851185, 182.038299)"><g><path d="M -6.847656 -23.957031 C -13.054688 -24.949219 -18.191406 -20.964844 -19.136719 -15.058594 C -20.070312 -9.210938 -16.445312 -3.761719 -10.238281 -2.769531 C -4 -1.773438 1.144531 -5.816406 2.082031 -11.664062 C 3.027344 -17.570312 -0.613281 -22.957031 -6.847656 -23.957031 Z M -9.679688 -6.261719 C -14.363281 -7.011719 -16.808594 -10.460938 -16.152344 -14.582031 C -15.492188 -18.699219 -12.089844 -21.214844 -7.40625 -20.464844 C -2.722656 -19.714844 -0.214844 -16.253906 -0.875 -12.136719 C -1.53125 -8.019531 -4.992188 -5.511719 -9.679688 -6.261719 Z M -9.679688 -6.261719 "/></g></g></g><g fill="#e9ede9" fill-opacity="1"><g transform="translate(84.471625, 159.160016)"><g><path d="M -15.453125 -18.816406 C -17.625 -13.308594 -15.25 -7.207031 -9.402344 -4.90625 C -3.527344 -2.589844 2.339844 -5.445312 4.511719 -10.957031 C 6.582031 -16.214844 4.234375 -21.554688 -0.0585938 -23.925781 L -2.5625 -24.914062 L -6.804688 -14.144531 L -4.246094 -13.136719 L -1.355469 -20.476562 C 1.746094 -18.703125 3.007812 -15.636719 1.613281 -12.097656 C 0.0859375 -8.214844 -3.804688 -6.5 -8.105469 -8.195312 C -12.410156 -9.890625 -14.058594 -13.785156 -12.527344 -17.667969 C -11.609375 -20 -9.894531 -21.46875 -7.515625 -21.734375 L -6 -25.585938 C -10.410156 -25.601562 -13.847656 -22.894531 -15.453125 -18.816406 Z M -15.453125 -18.816406 "/></g></g></g><g fill="#e9ede9" fill-opacity="1"><g transform="translate(93.351951, 137.740366)"><g><path d="M -16.753906 -12.867188 L 1.179688 -1.933594 L 6.667969 -10.941406 L 4.292969 -12.386719 L 0.597656 -6.324219 L -14.960938 -15.808594 Z M -16.753906 -12.867188 "/></g></g></g><g fill="#e9ede9" fill-opacity="1"><g transform="translate(100.356561, 126.100603)"><g><path d="M -7.464844 -24.0625 L -14.824219 -15.089844 L 1.4375 -1.753906 L 8.796875 -10.722656 L 6.625 -12.507812 L 1.449219 -6.199219 L -3.527344 -10.28125 L 1.070312 -15.886719 L -1.101562 -17.671875 L -5.699219 -12.0625 L -10.46875 -15.972656 L -5.292969 -22.28125 Z M -7.464844 -24.0625 "/></g></g></g><g fill="#e9ede9" fill-opacity="1"><g transform="translate(110.830317, 113.732568)"><g/></g></g><g fill="#e9ede9" fill-opacity="1"><g transform="translate(116.176294, 107.780056)"><g><path d="M -5.21875 -9.230469 C -1.550781 -4.09375 4.925781 -3.292969 9.746094 -6.738281 C 13.3125 -9.285156 15.121094 -13.25 14.035156 -17.523438 L 10.664062 -15.117188 C 11.054688 -12.648438 10.046875 -10.628906 8.007812 -9.171875 C 4.613281 -6.75 0.414062 -7.425781 -2.34375 -11.285156 C -5.101562 -15.148438 -4.363281 -19.3125 -0.96875 -21.738281 C 1.074219 -23.195312 3.308594 -23.492188 5.519531 -22.324219 L 8.890625 -24.730469 C 5.195312 -27.144531 0.839844 -26.742188 -2.726562 -24.195312 C -7.542969 -20.753906 -8.871094 -14.347656 -5.21875 -9.230469 Z M -5.21875 -9.230469 "/></g></g></g><g fill="#e9ede9" fill-opacity="1"><g transform="translate(134.853948, 94.512756)"><g><path d="M 14.277344 -6.273438 L 17.429688 -7.65625 L 8.980469 -26.886719 L 5.828125 -25.5 L 9.449219 -17.253906 L 0.402344 -13.28125 L -3.21875 -21.527344 L -6.371094 -20.140625 L 2.074219 -0.910156 L 5.230469 -2.296875 L 1.535156 -10.707031 L 10.582031 -14.683594 Z M 14.277344 -6.273438 "/></g></g></g><g fill="#e9ede9" fill-opacity="1"><g transform="translate(154.126054, 86.128598)"><g><path d="M 9.777344 -17.351562 C 10.242188 -15.316406 9.398438 -13.605469 6.777344 -13 L 3.066406 -12.148438 L 1.488281 -19.007812 L 5.199219 -19.863281 C 7.820312 -20.464844 9.300781 -19.410156 9.777344 -17.351562 Z M -2.5 -20.976562 L 2.207031 -0.507812 L 5.566406 -1.28125 L 3.683594 -9.46875 L 6.246094 -10.058594 L 12.839844 -2.953125 L 16.84375 -3.875 L 9.828125 -11.191406 C 13.078125 -12.839844 13.777344 -15.726562 13.222656 -18.144531 C 12.457031 -21.472656 9.425781 -23.71875 4.566406 -22.601562 Z M -2.5 -20.976562 "/></g></g></g><g fill="#e9ede9" fill-opacity="1"><g transform="translate(172.342619, 81.667633)"><g><path d="M 22.269531 -11.171875 C 22.09375 -17.457031 17.226562 -21.765625 11.246094 -21.597656 C 5.324219 -21.429688 0.648438 -16.855469 0.824219 -10.574219 C 1 -4.261719 5.925781 0.046875 11.847656 -0.121094 C 17.828125 -0.289062 22.445312 -4.859375 22.269531 -11.171875 Z M 4.355469 -10.671875 C 4.222656 -15.414062 7.160156 -18.460938 11.332031 -18.578125 C 15.5 -18.691406 18.601562 -15.816406 18.734375 -11.074219 C 18.867188 -6.332031 15.933594 -3.226562 11.761719 -3.109375 C 7.59375 -2.992188 4.488281 -5.929688 4.355469 -10.671875 Z M 4.355469 -10.671875 "/></g></g></g><g fill="#e9ede9" fill-opacity="1"><g transform="translate(195.393359, 80.777492)"><g><path d="M 2.21875 0.457031 L 5.59375 1.152344 L 8.492188 -12.9375 L 11.898438 2.449219 L 14.238281 2.929688 L 23.410156 -9.871094 L 20.511719 4.21875 L 23.886719 4.914062 L 28.117188 -15.660156 L 24.507812 -16.402344 L 13.996094 -1.75 L 10.09375 -19.367188 L 6.449219 -20.113281 Z M 2.21875 0.457031 "/></g></g></g><g fill="#e9ede9" fill-opacity="1"><g transform="translate(220.998932, 86.549227)"><g><path d="M 20.960938 -13.976562 L 10.273438 -18.492188 L 2.085938 0.882812 L 12.777344 5.398438 L 13.871094 2.808594 L 6.355469 -0.367188 L 8.859375 -6.296875 L 15.539062 -3.472656 L 16.632812 -6.0625 L 9.953125 -8.882812 L 12.351562 -14.5625 L 19.867188 -11.386719 Z M 20.960938 -13.976562 "/></g></g></g><g fill="#e9ede9" fill-opacity="1"><g transform="translate(235.830137, 93.086319)"><g/></g></g><g fill="#e9ede9" fill-opacity="1"><g transform="translate(243.060224, 96.626769)"><g><path d="M 25.570312 -6.847656 L 16.019531 5.550781 L 17.363281 -13.175781 L 14.632812 -15.277344 L 1.796875 1.382812 L 4.523438 3.484375 L 14.097656 -8.9375 L 12.734375 9.8125 L 15.464844 11.914062 L 28.300781 -4.746094 Z M 25.570312 -6.847656 "/></g></g></g><g fill="#e9ede9" fill-opacity="1"><g transform="translate(260.096019, 110.38451)"><g><path d="M 1.582031 1.625 L 3.984375 4.089844 L 19.027344 -10.566406 L 16.625 -13.035156 Z M 1.582031 1.625 "/></g></g></g><g fill="#e9ede9" fill-opacity="1"><g transform="translate(266.129166, 115.88678)"><g><path d="M 26.464844 0.582031 L 13.824219 9.8125 L 20.355469 -7.789062 L 18.324219 -10.570312 L 1.335938 1.832031 L 3.367188 4.613281 L 16.035156 -4.636719 L 9.480469 12.984375 L 11.511719 15.765625 L 28.496094 3.363281 Z M 26.464844 0.582031 "/></g></g></g><g fill="#e9ede9" fill-opacity="1"><g transform="translate(278.661532, 133.475571)"><g><path d="M 24.988281 3.21875 L 19.890625 -7.203125 L 0.996094 2.035156 L 6.09375 12.460938 L 8.617188 11.226562 L 5.035156 3.894531 L 10.816406 1.070312 L 14.003906 7.582031 L 16.527344 6.347656 L 13.339844 -0.167969 L 18.878906 -2.875 L 22.464844 4.457031 Z M 24.988281 3.21875 "/></g></g></g><g fill="#e9ede9" fill-opacity="1"><g transform="translate(285.556788, 148.141827)"><g/></g></g><g fill="#e9ede9" fill-opacity="1"><g transform="translate(288.531604, 155.79814)"><g><path d="M 18.015625 -2.792969 L 19.234375 2.695312 L 1.472656 6.636719 L 2.222656 10 L 19.980469 6.058594 L 21.191406 11.515625 L 23.933594 10.90625 L 20.757812 -3.402344 Z M 18.015625 -2.792969 "/></g></g></g><g fill="#e9ede9" fill-opacity="1"><g transform="translate(292.377248, 172.226537)"><g><path d="M 0.667969 16.425781 L 0.816406 20.050781 L 21.523438 11.675781 L 21.363281 7.691406 L 0.0429688 1.027344 L 0.1875 4.621094 L 4.535156 5.957031 L 4.894531 14.742188 Z M 7.664062 13.660156 L 7.382812 6.808594 L 17.277344 9.851562 Z M 7.664062 13.660156 "/></g></g></g><g fill="#e9ede9" fill-opacity="1"><g transform="translate(292.775166, 193.425795)"><g><path d="M -0.222656 2.253906 L -0.558594 5.683594 L 20.34375 7.738281 L 20.679688 4.3125 Z M -0.222656 2.253906 "/></g></g></g><g fill="#e9ede9" fill-opacity="1"><g transform="translate(292.066654, 201.860209)"><g><path d="M 20.109375 6.46875 L -0.457031 2.21875 L -2.589844 12.546875 L 0.132812 13.109375 L 1.566406 6.15625 L 19.414062 9.839844 Z M 20.109375 6.46875 "/></g></g></g><g fill="#e9ede9" fill-opacity="1"><g transform="translate(289.087905, 215.433403)"><g/></g></g><g fill="#e9ede9" fill-opacity="1"><g transform="translate(286.759459, 223.372027)"><g><path d="M -0.929688 2.066406 L -2.34375 5.207031 L 6.03125 8.980469 L 3.175781 15.316406 L 5.738281 16.472656 L 8.59375 10.132812 L 14.242188 12.675781 L 10.582031 20.804688 L 13.144531 21.960938 L 18.21875 10.691406 Z M -0.929688 2.066406 "/></g></g></g><g fill="#e9ede9" fill-opacity="1"><g transform="translate(279.997764, 237.807383)"><g><path d="M -1.160156 1.945312 L -2.925781 4.90625 L 15.109375 15.667969 L 16.875 12.707031 Z M -1.160156 1.945312 "/></g></g></g><g fill="#e9ede9" fill-opacity="1"><g transform="translate(276.069438, 245.066738)"><g><path d="M 3.238281 19.648438 C 1.601562 18.359375 1.1875 16.492188 2.855469 14.378906 L 5.214844 11.390625 L 10.742188 15.753906 L 8.382812 18.742188 C 6.714844 20.855469 4.898438 20.960938 3.238281 19.648438 Z M 15.082031 14.792969 L -1.402344 1.777344 L -3.539062 4.484375 L 3.054688 9.6875 L 1.425781 11.75 L -8.164062 10.34375 L -10.710938 13.566406 L -0.65625 14.878906 C -2.160156 18.199219 -0.898438 20.890625 1.046875 22.425781 C 3.726562 24.539062 7.5 24.398438 10.585938 20.484375 Z M 15.082031 14.792969 "/></g></g></g><g fill="#e9ede9" fill-opacity="1"><g transform="translate(264.178155, 259.920458)"><g><path d="M 3.898438 24.890625 L 12.480469 17.078125 L -1.675781 1.527344 L -10.257812 9.335938 L -8.367188 11.414062 L -2.332031 5.921875 L 2 10.683594 L -3.363281 15.566406 L -1.472656 17.644531 L 3.890625 12.761719 L 8.042969 17.320312 L 2.007812 22.8125 Z M 3.898438 24.890625 "/></g></g></g><g fill="#e9ede9" fill-opacity="1"><g transform="translate(252.403969, 270.616421)"><g><path d="M -1.882812 1.261719 L -4.746094 3.175781 L 0.359375 10.8125 L -5.417969 14.675781 L -3.855469 17.011719 L 1.921875 13.148438 L 5.367188 18.296875 L -2.042969 23.253906 L -0.480469 25.589844 L 9.792969 18.71875 Z M -1.882812 1.261719 "/></g></g></g><g fill="#e9ede9" fill-opacity="1"><g transform="translate(239.858647, 279.481532)"><g><path d="M -16.558594 18.617188 C -14.074219 24.386719 -7.960938 26.589844 -2.464844 24.226562 C 2.976562 21.882812 5.632812 15.902344 3.144531 10.128906 C 0.648438 4.328125 -5.523438 2.148438 -10.964844 4.492188 C -16.457031 6.859375 -19.058594 12.816406 -16.558594 18.617188 Z M -0.101562 11.527344 C 1.773438 15.882812 0.171875 19.800781 -3.660156 21.449219 C -7.488281 23.097656 -11.4375 21.574219 -13.3125 17.21875 C -15.191406 12.859375 -13.609375 8.890625 -9.78125 7.238281 C -5.949219 5.589844 -1.980469 7.167969 -0.101562 11.527344 Z M -0.101562 11.527344 "/></g></g></g><g fill="#e9ede9" fill-opacity="1"><g transform="translate(218.418384, 288.553624)"><g><path d="M -14.261719 2.964844 L -18.046875 3.75 L -9.523438 12.6875 L -13.804688 24.320312 L -10.046875 23.539062 L -7.230469 15.113281 L -0.992188 21.65625 L 2.792969 20.871094 L -5.765625 11.910156 L -1.507812 0.3125 L -5.265625 1.09375 L -8.066406 9.453125 Z M -14.261719 2.964844 "/></g></g></g><g fill="#e9ede9" fill-opacity="1"><g transform="translate(198.627163, 292.242309)"><g/></g></g><g fill="#e9ede9" fill-opacity="1"><g transform="translate(190.073617, 292.826584)"><g/></g></g></svg>