<svg xmlns="http://www.w3.org/2000/svg" xmlns:xlink="http://www.w3.org/1999/xlink" width="500" zoomAndPan="magnify" viewBox="0 0 375 374.999991" height="500" preserveAspectRatio="xMidYMid meet" version="1.0"><defs><g/></defs><g fill="#ab9047" fill-opacity="1"><g transform="translate(0.0000045, 323.783002)"><g><path d="M 134.136719 -209.40625 L 100.359375 -115.15625 L 50.179688 -255.40625 C 49.859375 -256.691406 48.570312 -257.335938 46.964844 -257.335938 L 3.214844 -257.335938 C 0.644531 -257.335938 -0.644531 -255.40625 0.320312 -253.476562 L 97.144531 -1.609375 C 98.429688 0.644531 102.289062 0.644531 103.253906 -1.609375 L 183.671875 -209.40625 Z M 134.136719 -209.40625 "/></g></g></g><g fill="#ab9047" fill-opacity="1"><g transform="translate(57.2142, 317.273442)"><g><path d="M 203.019531 -3.878906 L 104.742188 -256.683594 C 103.773438 -259.269531 99.246094 -259.269531 98.277344 -256.683594 L 0.324219 -3.878906 C -0.648438 -1.941406 0.648438 0 3.554688 0 L 47.84375 0 C 49.136719 0 50.753906 -0.648438 51.078125 -1.941406 L 101.507812 -146.121094 L 152.585938 -1.941406 C 152.910156 -0.648438 154.527344 0 155.496094 0 L 200.109375 0 C 202.371094 0 203.988281 -1.941406 203.019531 -3.878906 Z M 203.019531 -3.878906 "/></g></g></g><g fill="#179b9e" fill-opacity="1"><g transform="translate(110.8374, 220.071702)"><g><path d="M 242.648438 54.441406 L 142.53125 54.929688 L 257.164062 -40.183594 C 258.261719 -40.925781 258.425781 -42.351562 257.875 -43.863281 L 242.917969 -84.972656 C 242.039062 -87.390625 239.785156 -87.941406 238.300781 -86.375 L 34.730469 90.734375 C 33.054688 92.714844 34.375 96.34375 36.820312 96.480469 L 259.585938 100.992188 Z M 242.648438 54.441406 "/></g></g></g><g fill="#ab9047" fill-opacity="1"><g transform="translate(213.200483, 122.943851)"><g><path d="M 3.71875 0 L 0 -14.15625 L 3.796875 -14.15625 L 5.28125 -7.15625 C 5.34375 -6.914062 5.40625 -6.59375 5.46875 -6.1875 C 5.539062 -5.78125 5.660156 -5 5.828125 -3.84375 C 5.867188 -4.125 5.953125 -4.671875 6.078125 -5.484375 C 6.210938 -6.296875 6.304688 -6.847656 6.359375 -7.140625 L 7.8125 -14.15625 L 11.46875 -14.15625 L 12.953125 -7.15625 C 13.015625 -6.914062 13.078125 -6.59375 13.140625 -6.1875 C 13.210938 -5.78125 13.332031 -5 13.5 -3.84375 C 13.539062 -4.125 13.625 -4.671875 13.75 -5.484375 C 13.882812 -6.296875 13.984375 -6.847656 14.046875 -7.140625 L 15.484375 -14.15625 L 19.171875 -14.15625 L 15.46875 0 L 11.421875 0 L 10.515625 -4.296875 C 10.367188 -5.015625 10.21875 -5.769531 10.0625 -6.5625 C 9.914062 -7.363281 9.757812 -8.25 9.59375 -9.21875 C 9.351562 -7.875 9.164062 -6.863281 9.03125 -6.1875 C 8.894531 -5.507812 8.765625 -4.878906 8.640625 -4.296875 L 7.75 0 Z M 3.71875 0 "/></g></g></g><g fill="#ab9047" fill-opacity="1"><g transform="translate(244.666282, 122.943851)"><g><path d="M 10.84375 -3.28125 L 10.84375 0 L 1.078125 0 L 1.078125 -14.15625 L 10.640625 -14.15625 L 10.640625 -11 L 4.578125 -11 L 4.578125 -8.640625 L 9.796875 -8.640625 L 9.796875 -5.71875 L 4.578125 -5.71875 L 4.578125 -3.28125 Z M 10.84375 -3.28125 "/></g></g></g><g fill="#ab9047" fill-opacity="1"><g transform="translate(268.367942, 122.943851)"><g><path d="M 12.125 -4.15625 C 12.125 -2.726562 11.707031 -1.675781 10.875 -1 C 10.039062 -0.332031 8.726562 0 6.9375 0 L 1.078125 0 L 1.078125 -14.15625 L 6.9375 -14.15625 C 8.5625 -14.15625 9.710938 -13.875 10.390625 -13.3125 C 11.078125 -12.75 11.421875 -11.800781 11.421875 -10.46875 C 11.421875 -9.632812 11.304688 -8.992188 11.078125 -8.546875 C 10.859375 -8.097656 10.410156 -7.753906 9.734375 -7.515625 C 10.546875 -7.347656 11.144531 -6.984375 11.53125 -6.421875 C 11.925781 -5.867188 12.125 -5.113281 12.125 -4.15625 Z M 8.203125 -9.953125 C 8.203125 -10.453125 8.101562 -10.800781 7.90625 -11 C 7.71875 -11.195312 7.394531 -11.296875 6.9375 -11.296875 L 4.578125 -11.296875 L 4.578125 -8.421875 L 6.9375 -8.421875 C 7.394531 -8.421875 7.71875 -8.535156 7.90625 -8.765625 C 8.101562 -9.003906 8.203125 -9.398438 8.203125 -9.953125 Z M 8.734375 -4.375 C 8.734375 -4.914062 8.597656 -5.296875 8.328125 -5.515625 C 8.054688 -5.734375 7.59375 -5.84375 6.9375 -5.84375 L 4.578125 -5.84375 L 4.578125 -2.984375 L 6.9375 -2.984375 C 7.59375 -2.984375 8.054688 -3.085938 8.328125 -3.296875 C 8.597656 -3.503906 8.734375 -3.863281 8.734375 -4.375 Z M 8.734375 -4.375 "/></g></g></g><g fill="#000000" fill-opacity="1"><g transform="translate(293.232643, 122.943851)"><g><path d="M 3.921875 0 L 0.65625 0 L 0.65625 -3.109375 L 3.921875 -3.109375 Z M 3.921875 0 "/></g></g></g><g fill="#179b9e" fill-opacity="1"><g transform="translate(310.113138, 122.943851)"><g><path d="M 10.109375 -3.28125 L 10.109375 0 L 1.078125 0 L 1.078125 -14.15625 L 4.578125 -14.15625 L 4.578125 -3.28125 Z M 10.109375 -3.28125 "/></g></g></g></svg>