<svg xmlns="http://www.w3.org/2000/svg" xmlns:xlink="http://www.w3.org/1999/xlink" width="500" zoomAndPan="magnify" viewBox="0 0 375 374.999991" height="500" preserveAspectRatio="xMidYMid meet" version="1.0"><defs><clipPath id="84ac01bb93"><path d="M 127 118.226562 L 246 118.226562 L 246 201 L 127 201 Z M 127 118.226562 " clip-rule="nonzero"/></clipPath><clipPath id="d6fcf2a53d"><path d="M 32.382812 23.234375 L 325.632812 23.234375 L 325.632812 329.234375 L 32.382812 329.234375 Z M 32.382812 23.234375 " clip-rule="nonzero"/></clipPath></defs><rect x="-37.5" width="450" fill="#ffffff" y="-37.499999" height="449.999989" fill-opacity="1"/><rect x="-37.5" width="450" fill="#ffffff" y="-37.499999" height="449.999989" fill-opacity="1"/><rect x="-37.5" width="450" fill="#ffffff" y="-37.499999" height="449.999989" fill-opacity="1"/><path fill="#ffffff" d="M 153.664062 187.460938 C 153.664062 186.464844 153.710938 185.46875 153.808594 184.476562 C 153.90625 183.488281 154.050781 182.5 154.242188 181.523438 C 154.4375 180.546875 154.675781 179.582031 154.964844 178.628906 C 155.253906 177.675781 155.585938 176.738281 155.964844 175.816406 C 156.347656 174.894531 156.769531 173.996094 157.238281 173.117188 C 157.707031 172.238281 158.21875 171.382812 158.769531 170.554688 C 159.320312 169.726562 159.914062 168.925781 160.542969 168.15625 C 161.171875 167.382812 161.839844 166.644531 162.542969 165.941406 C 163.246094 165.234375 163.980469 164.566406 164.75 163.933594 C 165.519531 163.300781 166.316406 162.707031 167.144531 162.15625 C 167.96875 161.601562 168.820312 161.089844 169.699219 160.617188 C 170.574219 160.148438 171.472656 159.722656 172.390625 159.339844 C 173.3125 158.957031 174.246094 158.621094 175.199219 158.332031 C 176.148438 158.042969 177.113281 157.800781 178.089844 157.605469 C 179.066406 157.410156 180.046875 157.261719 181.039062 157.164062 C 182.027344 157.066406 183.019531 157.015625 184.015625 157.015625 C 185.011719 157.015625 186.003906 157.0625 186.992188 157.160156 C 187.984375 157.257812 188.964844 157.402344 189.941406 157.597656 C 190.917969 157.789062 191.882812 158.03125 192.832031 158.320312 C 193.785156 158.609375 194.722656 158.945312 195.640625 159.324219 C 196.558594 159.707031 197.457031 160.128906 198.335938 160.601562 C 199.214844 161.070312 200.066406 161.582031 200.894531 162.132812 C 201.722656 162.6875 202.519531 163.277344 203.289062 163.910156 C 204.058594 164.542969 204.792969 165.210938 205.5 165.914062 C 206.203125 166.617188 206.871094 167.355469 207.5 168.125 C 208.132812 168.894531 208.726562 169.695312 209.277344 170.523438 C 209.832031 171.351562 210.34375 172.203125 210.8125 173.082031 C 211.28125 173.960938 211.707031 174.859375 212.085938 175.78125 C 212.46875 176.703125 212.804688 177.636719 213.09375 178.589844 C 213.382812 179.546875 213.625 180.511719 213.816406 181.488281 C 214.011719 182.464844 214.160156 183.449219 214.257812 184.441406 C 214.355469 185.433594 214.402344 186.425781 214.402344 187.421875 C 214.402344 188.417969 214.355469 189.414062 214.257812 190.402344 C 214.160156 191.394531 214.015625 192.378906 213.820312 193.355469 C 213.628906 194.335938 213.386719 195.300781 213.097656 196.253906 C 212.808594 197.207031 212.476562 198.144531 212.09375 199.066406 C 211.714844 199.984375 211.289062 200.886719 210.820312 201.761719 C 210.351562 202.640625 209.839844 203.496094 209.289062 204.324219 C 208.734375 205.152344 208.144531 205.953125 207.511719 206.722656 C 206.882812 207.492188 206.214844 208.230469 205.511719 208.933594 C 204.808594 209.640625 204.074219 210.308594 203.304688 210.941406 C 202.535156 211.574219 201.738281 212.164062 200.910156 212.71875 C 200.082031 213.273438 199.230469 213.785156 198.351562 214.253906 C 197.476562 214.722656 196.578125 215.148438 195.65625 215.53125 C 194.738281 215.914062 193.804688 216.246094 192.851562 216.535156 C 191.898438 216.828125 190.9375 217.066406 189.960938 217.261719 C 188.984375 217.457031 188 217.601562 187.011719 217.699219 C 186.019531 217.796875 185.027344 217.847656 184.035156 217.847656 C 183.039062 217.847656 182.046875 217.796875 181.058594 217.699219 C 180.070312 217.601562 179.085938 217.457031 178.113281 217.261719 C 177.136719 217.070312 176.175781 216.828125 175.222656 216.539062 C 174.273438 216.25 173.335938 215.914062 172.417969 215.535156 C 171.5 215.152344 170.601562 214.730469 169.726562 214.261719 C 168.847656 213.789062 167.996094 213.28125 167.171875 212.726562 C 166.34375 212.175781 165.546875 211.582031 164.777344 210.949219 C 164.007812 210.320312 163.273438 209.652344 162.570312 208.949219 C 161.867188 208.246094 161.199219 207.507812 160.570312 206.738281 C 159.9375 205.96875 159.34375 205.171875 158.792969 204.34375 C 158.238281 203.515625 157.730469 202.664062 157.261719 201.785156 C 156.789062 200.910156 156.367188 200.011719 155.984375 199.089844 C 155.605469 198.171875 155.269531 197.234375 154.980469 196.28125 C 154.691406 195.332031 154.449219 194.367188 154.253906 193.390625 C 154.058594 192.414062 153.910156 191.429688 153.8125 190.4375 C 153.714844 189.449219 153.664062 188.457031 153.664062 187.460938 Z M 153.664062 187.460938 " fill-opacity="1" fill-rule="nonzero"/><path fill="#503a96" d="M 184.035156 217.847656 C 182.742188 217.847656 181.457031 217.761719 180.175781 217.597656 C 178.894531 217.433594 177.632812 217.1875 176.382812 216.863281 C 175.132812 216.535156 173.910156 216.128906 172.710938 215.648438 C 171.515625 215.164062 170.351562 214.609375 169.226562 213.976562 C 168.097656 213.34375 167.015625 212.644531 165.980469 211.875 C 164.941406 211.105469 163.957031 210.273438 163.023438 209.378906 C 162.09375 208.484375 161.222656 207.53125 160.410156 206.527344 C 159.601562 205.519531 158.859375 204.464844 158.183594 203.363281 L 157.984375 203.050781 L 157.753906 202.625 L 157.074219 201.429688 C 152.640625 193.378906 132.839844 157.527344 127.871094 148.90625 C 126.117188 151.5625 124.550781 154.328125 123.175781 157.199219 C 121.800781 160.070312 120.625 163.023438 119.652344 166.054688 C 118.683594 169.089844 117.921875 172.175781 117.371094 175.3125 C 116.820312 178.449219 116.484375 181.609375 116.367188 184.789062 C 116.25 187.972656 116.347656 191.148438 116.664062 194.320312 C 116.980469 197.488281 117.507812 200.621094 118.253906 203.71875 C 118.996094 206.8125 119.949219 209.847656 121.105469 212.8125 C 122.265625 215.777344 123.621094 218.652344 125.171875 221.433594 C 146.816406 255.773438 179.601562 255.175781 179.601562 255.175781 C 179.601562 255.175781 205.625 210.988281 210.683594 202.027344 C 210.03125 203.21875 209.304688 204.363281 208.5 205.457031 C 207.695312 206.550781 206.824219 207.585938 205.878906 208.5625 C 204.9375 209.542969 203.933594 210.449219 202.871094 211.292969 C 201.804688 212.136719 200.691406 212.902344 199.523438 213.597656 C 198.355469 214.289062 197.148438 214.902344 195.898438 215.429688 C 194.652344 215.960938 193.371094 216.40625 192.0625 216.765625 C 190.757812 217.125 189.429688 217.394531 188.085938 217.574219 C 186.742188 217.757812 185.390625 217.847656 184.035156 217.847656 Z M 184.035156 217.847656 " fill-opacity="1" fill-rule="nonzero"/><path fill="#daa844" d="M 245.453125 157.101562 C 245.453125 157.101562 193.066406 156.929688 182.953125 157.101562 L 184.175781 157.101562 C 184.832031 157.101562 185.484375 157.121094 186.140625 157.164062 C 186.792969 157.207031 187.445312 157.269531 188.09375 157.351562 C 188.742188 157.4375 189.390625 157.542969 190.03125 157.667969 C 190.675781 157.792969 191.3125 157.941406 191.945312 158.109375 C 192.578125 158.277344 193.207031 158.464844 193.828125 158.671875 C 194.449219 158.878906 195.0625 159.109375 195.667969 159.355469 C 196.273438 159.605469 196.871094 159.871094 197.460938 160.160156 C 198.050781 160.445312 198.628906 160.75 199.199219 161.074219 C 199.765625 161.398438 200.324219 161.742188 200.871094 162.101562 C 201.421875 162.464844 201.953125 162.839844 202.476562 163.234375 C 203 163.632812 203.507812 164.042969 204.003906 164.472656 C 204.5 164.898438 204.984375 165.34375 205.449219 165.804688 C 205.917969 166.261719 206.371094 166.738281 206.808594 167.226562 C 207.242188 167.714844 207.664062 168.214844 208.070312 168.734375 C 208.472656 169.25 208.859375 169.777344 209.230469 170.320312 C 209.601562 170.859375 209.953125 171.414062 210.285156 171.976562 C 210.621094 172.539062 210.9375 173.113281 211.234375 173.699219 C 211.53125 174.285156 211.808594 174.875 212.066406 175.480469 C 212.328125 176.082031 212.566406 176.691406 212.785156 177.308594 C 213.003906 177.929688 213.203125 178.554688 213.382812 179.183594 C 213.5625 179.816406 213.71875 180.449219 213.859375 181.09375 C 213.996094 181.734375 214.113281 182.378906 214.207031 183.027344 C 214.304688 183.675781 214.378906 184.328125 214.433594 184.980469 C 214.488281 185.632812 214.519531 186.289062 214.53125 186.945312 C 214.542969 187.601562 214.535156 188.257812 214.503906 188.910156 C 214.472656 189.566406 214.421875 190.21875 214.347656 190.871094 C 214.277344 191.523438 214.183594 192.171875 214.066406 192.816406 C 213.953125 193.464844 213.816406 194.105469 213.660156 194.742188 C 213.503906 195.378906 213.328125 196.011719 213.128906 196.636719 C 212.933594 197.261719 212.714844 197.878906 212.480469 198.492188 C 212.242188 199.101562 211.984375 199.707031 211.710938 200.300781 C 211.433594 200.894531 211.136719 201.480469 210.824219 202.054688 C 210.824219 202.054688 185.253906 245.390625 179.574219 255.148438 C 182.742188 255.332031 185.910156 255.296875 189.074219 255.046875 C 192.242188 254.796875 195.375 254.332031 198.476562 253.652344 C 201.578125 252.972656 204.617188 252.085938 207.601562 250.992188 C 210.582031 249.898438 213.472656 248.605469 216.277344 247.113281 C 219.082031 245.625 221.773438 243.949219 224.347656 242.089844 C 226.925781 240.230469 229.363281 238.207031 231.664062 236.015625 C 233.960938 233.824219 236.101562 231.484375 238.085938 229 C 240.066406 226.515625 241.867188 223.90625 243.496094 221.175781 C 262.386719 185.210938 245.453125 157.101562 245.453125 157.101562 Z M 245.453125 157.101562 " fill-opacity="1" fill-rule="nonzero"/><g clip-path="url(#84ac01bb93)"><path fill="#298383" d="M 153.664062 187.460938 C 153.664062 184.671875 154.042969 181.9375 154.800781 179.253906 C 155.558594 176.570312 156.667969 174.042969 158.125 171.667969 C 159.410156 169.550781 160.929688 167.617188 162.6875 165.871094 C 164.445312 164.125 166.386719 162.617188 168.515625 161.351562 C 170.644531 160.082031 172.894531 159.09375 175.261719 158.378906 C 177.632812 157.664062 180.054688 157.246094 182.527344 157.128906 L 245.597656 157.128906 C 244.171875 154.285156 242.558594 151.550781 240.757812 148.925781 C 238.960938 146.300781 236.988281 143.808594 234.851562 141.457031 C 232.710938 139.101562 230.421875 136.902344 227.984375 134.859375 C 225.542969 132.820312 222.976562 130.953125 220.285156 129.261719 C 217.589844 127.570312 214.792969 126.074219 211.894531 124.765625 C 208.996094 123.457031 206.023438 122.351562 202.976562 121.453125 C 199.925781 120.550781 196.828125 119.863281 193.6875 119.386719 C 190.542969 118.910156 187.382812 118.648438 184.203125 118.605469 C 143.664062 120.226562 127.8125 148.964844 127.8125 148.964844 C 127.8125 148.964844 151.363281 191.640625 156.5625 200.433594 C 154.628906 196.328125 153.664062 192 153.664062 187.460938 Z M 153.664062 187.460938 " fill-opacity="1" fill-rule="nonzero"/></g><path fill="#000103" d="M 158.808594 187.460938 C 158.808594 186.628906 158.847656 185.804688 158.929688 184.976562 C 159.007812 184.152344 159.132812 183.332031 159.292969 182.519531 C 159.453125 181.707031 159.65625 180.902344 159.894531 180.109375 C 160.136719 179.316406 160.414062 178.535156 160.730469 177.769531 C 161.046875 177.003906 161.402344 176.253906 161.792969 175.523438 C 162.183594 174.792969 162.609375 174.082031 163.066406 173.390625 C 163.527344 172.703125 164.019531 172.035156 164.546875 171.394531 C 165.070312 170.753906 165.625 170.140625 166.210938 169.554688 C 166.796875 168.96875 167.410156 168.410156 168.050781 167.886719 C 168.691406 167.359375 169.355469 166.867188 170.042969 166.40625 C 170.730469 165.945312 171.441406 165.519531 172.171875 165.128906 C 172.902344 164.738281 173.648438 164.382812 174.414062 164.066406 C 175.179688 163.746094 175.957031 163.46875 176.75 163.226562 C 177.542969 162.988281 178.347656 162.785156 179.160156 162.625 C 179.96875 162.460938 180.789062 162.339844 181.613281 162.257812 C 182.4375 162.179688 183.261719 162.136719 184.089844 162.136719 C 184.917969 162.136719 185.746094 162.179688 186.570312 162.257812 C 187.394531 162.339844 188.210938 162.460938 189.023438 162.625 C 189.835938 162.785156 190.636719 162.988281 191.429688 163.226562 C 192.222656 163.46875 193 163.746094 193.765625 164.066406 C 194.53125 164.382812 195.28125 164.738281 196.007812 165.128906 C 196.738281 165.519531 197.449219 165.945312 198.136719 166.40625 C 198.828125 166.867188 199.492188 167.359375 200.132812 167.886719 C 200.769531 168.410156 201.382812 168.96875 201.96875 169.554688 C 202.554688 170.140625 203.109375 170.753906 203.636719 171.394531 C 204.160156 172.035156 204.652344 172.703125 205.113281 173.390625 C 205.574219 174.082031 206 174.792969 206.390625 175.523438 C 206.78125 176.253906 207.132812 177.003906 207.449219 177.769531 C 207.765625 178.535156 208.046875 179.316406 208.285156 180.109375 C 208.527344 180.902344 208.726562 181.707031 208.890625 182.519531 C 209.050781 183.332031 209.171875 184.152344 209.253906 184.976562 C 209.335938 185.804688 209.375 186.628906 209.375 187.460938 C 209.375 188.289062 209.335938 189.117188 209.253906 189.941406 C 209.171875 190.765625 209.050781 191.585938 208.890625 192.398438 C 208.726562 193.214844 208.527344 194.015625 208.285156 194.8125 C 208.046875 195.605469 207.765625 196.382812 207.449219 197.152344 C 207.132812 197.917969 206.78125 198.664062 206.390625 199.398438 C 206 200.128906 205.574219 200.839844 205.113281 201.527344 C 204.652344 202.21875 204.160156 202.882812 203.636719 203.523438 C 203.109375 204.164062 202.554688 204.78125 201.96875 205.367188 C 201.382812 205.953125 200.769531 206.507812 200.132812 207.035156 C 199.492188 207.5625 198.828125 208.054688 198.136719 208.515625 C 197.449219 208.976562 196.738281 209.402344 196.007812 209.792969 C 195.28125 210.183594 194.53125 210.539062 193.765625 210.855469 C 193 211.171875 192.222656 211.453125 191.429688 211.691406 C 190.636719 211.933594 189.835938 212.132812 189.023438 212.296875 C 188.210938 212.457031 187.394531 212.578125 186.570312 212.660156 C 185.746094 212.742188 184.917969 212.78125 184.089844 212.78125 C 183.261719 212.785156 182.4375 212.742188 181.613281 212.664062 C 180.789062 212.582031 179.96875 212.460938 179.15625 212.300781 C 178.34375 212.140625 177.539062 211.9375 176.75 211.699219 C 175.957031 211.457031 175.175781 211.179688 174.410156 210.863281 C 173.644531 210.546875 172.898438 210.191406 172.167969 209.800781 C 171.4375 209.410156 170.726562 208.984375 170.035156 208.523438 C 169.347656 208.0625 168.683594 207.570312 168.042969 207.042969 C 167.402344 206.515625 166.789062 205.960938 166.203125 205.375 C 165.617188 204.789062 165.0625 204.171875 164.539062 203.53125 C 164.011719 202.890625 163.519531 202.226562 163.058594 201.535156 C 162.597656 200.84375 162.175781 200.132812 161.785156 199.402344 C 161.394531 198.671875 161.039062 197.921875 160.722656 197.15625 C 160.40625 196.386719 160.128906 195.609375 159.890625 194.8125 C 159.648438 194.019531 159.449219 193.214844 159.289062 192.402344 C 159.128906 191.589844 159.007812 190.769531 158.925781 189.941406 C 158.84375 189.117188 158.804688 188.289062 158.808594 187.460938 Z M 158.808594 187.460938 " fill-opacity="1" fill-rule="nonzero"/><g clip-path="url(#d6fcf2a53d)"><path fill="#001e62" d="M 36.71875 179.179688 C 35.675781 200.496094 39.714844 221.765625 48.558594 241.171875 C 60.398438 268.046875 80.074219 290.613281 104.925781 305.875 C 115.058594 312.800781 126.121094 318.179688 137.78125 321.8125 C 139.308594 322.363281 140.890625 322.921875 142.484375 323.484375 C 142 323.304688 141.503906 323.050781 141.019531 322.871094 C 154.820312 327.066406 169.246094 329.234375 183.648438 329.234375 C 234.75 329.234375 251.613281 309.523438 253.128906 307.597656 C 255.628906 305.316406 257.71875 302.535156 259.167969 299.386719 C 260.152344 298.953125 261.121094 298.519531 262.164062 298.097656 L 262.777344 297.792969 L 263.9375 297.246094 C 271.632812 293.597656 278.886719 288.96875 285.5 283.589844 C 295.453125 276.359375 302.539062 265.855469 305.585938 253.855469 C 307.417969 249.46875 307.46875 244.585938 305.828125 240.136719 C 306.375 239.269531 306.871094 238.414062 307.484375 237.472656 C 318.480469 219.609375 324.699219 199.210938 325.554688 178.210938 L 325.554688 176.488281 C 325.554688 171.976562 325.183594 167.527344 324.394531 163.128906 L 324.394531 163.039062 C 323.960938 160.257812 323.527344 158.652344 323.527344 158.652344 C 323.527344 158.652344 322.433594 159.890625 320.660156 162.296875 C 320.113281 155.679688 318.953125 149.191406 317.117188 142.777344 C 314.863281 134.796875 311.929688 127.082031 308.261719 119.664062 C 305.941406 114.714844 303.253906 110.023438 300.144531 105.574219 C 299.046875 103.902344 297.886719 102.234375 296.726562 100.703125 C 291.347656 91.804688 285.117188 86.308594 277.980469 75.980469 C 273.339844 68.0625 270.105469 59.355469 268.574219 50.277344 C 266.625 55.773438 265.097656 61.40625 264.050781 67.144531 C 256.660156 59.609375 250.3125 54.292969 246.398438 50.632812 C 227.5 32.566406 229.707031 23.234375 229.707031 23.234375 C 229.707031 23.234375 194.097656 63.472656 209.492188 105.371094 C 214.808594 119.585938 224.035156 132.003906 235.988281 141.144531 C 250.886719 153.628906 267.007812 163.394531 275.496094 188.488281 C 268.652344 175.328125 258.339844 164.273438 245.6875 156.664062 C 249.472656 165.753906 251.433594 175.570312 251.371094 185.402344 C 251.371094 223.089844 221.078125 253.691406 183.839844 253.625 C 178.765625 253.625 173.769531 253.066406 168.890625 251.894531 C 163.089844 250.785156 157.457031 248.859375 152.15625 246.140625 C 144.28125 241.324219 137.5 234.960938 132.121094 227.425781 L 132.007812 227.234375 L 133.230469 227.667969 C 136.046875 228.664062 138.839844 229.390625 141.78125 229.949219 C 153.203125 232.421875 165.167969 231.007812 175.734375 225.882812 C 186.414062 219.878906 192.824219 215.441406 198.085938 217.238281 L 198.203125 217.238281 C 203.335938 218.910156 207.363281 213.832031 203.695312 208.59375 C 197.347656 200.320312 186.972656 196.226562 176.703125 198.085938 C 166.023438 199.628906 156.246094 207.355469 142.253906 199.886719 C 141.347656 199.386719 140.484375 198.890625 139.628906 198.34375 C 138.648438 197.792969 142.625 199.144531 141.695312 198.519531 C 138.648438 196.976562 135.714844 195.179688 132.898438 193.203125 C 132.722656 193.011719 135.039062 193.894531 134.785156 193.703125 C 131.179688 191.226562 128.070312 188.015625 125.636719 184.316406 C 123.136719 179.742188 122.882812 174.179688 125.023438 169.425781 C 126.296875 167.078125 128.324219 165.167969 130.707031 164.046875 C 132.542969 164.964844 133.640625 165.652344 133.640625 165.652344 C 133.640625 165.652344 132.847656 164.109375 132.363281 163.304688 C 132.542969 163.242188 132.671875 163.304688 132.847656 163.191406 C 134.441406 163.878906 137.921875 165.664062 139.808594 166.773438 C 141.082031 167.460938 142.125 168.445312 142.980469 169.667969 C 142.980469 169.667969 143.59375 169.363281 143.160156 167.996094 C 142.484375 166.328125 141.386719 164.914062 139.859375 163.929688 L 139.972656 163.929688 C 141.375 164.671875 142.726562 165.535156 144 166.46875 C 145.160156 163.753906 145.707031 160.78125 145.59375 157.824219 C 145.707031 156.214844 145.476562 154.558594 144.917969 153.003906 C 144.421875 152.007812 145.210938 151.640625 146.078125 152.699219 C 145.960938 151.894531 145.644531 151.15625 145.351562 150.414062 L 145.351562 150.339844 C 145.351562 150.339844 145.847656 149.652344 146.078125 149.421875 C 146.6875 148.796875 147.351562 148.246094 148.15625 147.75 C 152.550781 144.972656 157.191406 142.5625 162.019531 140.574219 C 165.933594 138.851562 169.15625 137.539062 169.832031 137.105469 C 170.8125 136.480469 171.71875 135.742188 172.585938 134.9375 C 175.824219 132.15625 178.078125 128.269531 178.816406 123.996094 C 178.882812 123.449219 178.933594 122.886719 178.996094 122.261719 L 178.996094 121.34375 C 178.449219 119.179688 174.789062 117.570312 155.546875 115.722656 C 148.753906 114.613281 143.3125 109.488281 141.78125 102.679688 L 141.78125 102.628906 C 145.441406 92.925781 152.027344 84.652344 160.59375 78.964844 C 161.089844 78.53125 158.644531 79.078125 159.140625 78.660156 C 160.796875 77.855469 162.441406 77.117188 164.148438 76.492188 C 165.015625 76.121094 160.492188 74.398438 156.453125 74.820312 C 154.003906 74.933594 151.570312 75.558594 149.316406 76.542969 C 150.296875 75.738281 153.097656 74.628906 152.425781 74.628906 C 147.277344 75.625 142.34375 77.535156 137.820312 80.203125 C 137.820312 79.703125 137.882812 79.285156 138.125 78.835938 C 134.519531 80.390625 131.394531 82.867188 128.960938 85.953125 C 129.027344 85.402344 129.078125 84.84375 129.078125 84.28125 C 127.417969 85.519531 125.902344 86.945312 124.617188 88.539062 L 124.566406 88.601562 C 113.9375 84.460938 102.390625 83.476562 91.226562 85.710938 L 91.113281 85.632812 L 91.226562 85.632812 C 88.90625 83.71875 86.894531 81.488281 85.300781 78.902344 L 85.183594 78.964844 L 84.929688 78.851562 C 84.203125 77.742188 83.464844 76.503906 82.675781 75.140625 C 82.125 74.144531 81.578125 73.046875 81.019531 71.925781 C 81.019531 71.863281 80.953125 71.8125 80.902344 71.8125 C 80.660156 71.8125 80.535156 72.871094 80.355469 72.613281 L 80.355469 72.539062 C 78.40625 67.414062 77.488281 61.917969 77.667969 56.347656 L 77.5625 56.421875 C 74.453125 58.589844 72.070312 61.738281 70.785156 65.386719 C 70.238281 66.671875 69.804688 67.425781 69.445312 68.164062 L 69.445312 67.859375 C 69.511719 67.171875 69.804688 65.820312 69.738281 65.945312 C 69.675781 66.074219 69.625 66.125 69.5625 66.203125 C 68.65625 67.261719 67.789062 68.484375 67.179688 69.785156 C 66.628906 70.957031 66.132812 72.195312 65.777344 73.445312 C 65.710938 73.636719 65.777344 73.253906 65.777344 72.820312 C 65.777344 72.386719 65.839844 71.582031 65.777344 71.761719 L 65.585938 72.195312 C 61.492188 81.398438 58.933594 91.242188 58.027344 101.316406 C 57.773438 103.035156 57.65625 104.757812 57.722656 106.441406 L 57.722656 106.554688 C 54.789062 109.769531 52.230469 113.351562 49.972656 117.125 C 42.59375 129.722656 37.089844 143.390625 33.609375 157.671875 C 36.054688 152.238281 38.976562 147.050781 42.339844 142.152344 C 35.800781 158.894531 32.449219 176.757812 32.449219 194.8125 C 33.546875 189.496094 35.011719 184.304688 36.71875 179.179688 Z M 36.71875 179.179688 " fill-opacity="1" fill-rule="nonzero"/></g></svg>