<svg xmlns="http://www.w3.org/2000/svg" xmlns:xlink="http://www.w3.org/1999/xlink" width="1080" zoomAndPan="magnify" viewBox="0 0 810 809.999993" height="1080" preserveAspectRatio="xMidYMid meet" version="1.0"><defs><clipPath id="f8820703dd"><path d="M 17.636719 17.636719 L 792.386719 17.636719 L 792.386719 792.386719 L 17.636719 792.386719 Z M 17.636719 17.636719 " clip-rule="nonzero"/></clipPath><clipPath id="18acf067c9"><path d="M 90.363281 90.363281 L 719.613281 90.363281 L 719.613281 719.613281 L 90.363281 719.613281 Z M 90.363281 90.363281 " clip-rule="nonzero"/></clipPath></defs><g clip-path="url(#f8820703dd)"><path fill="#000000" d="M 405.011719 17.636719 C 191.410156 17.636719 17.636719 191.410156 17.636719 405.011719 C 17.636719 618.609375 191.410156 792.386719 405.011719 792.386719 C 618.609375 792.386719 792.386719 618.609375 792.386719 405.011719 C 792.386719 191.410156 618.609375 17.636719 405.011719 17.636719 Z M 405.011719 17.636719 " fill-opacity="1" fill-rule="nonzero"/></g><g clip-path="url(#18acf067c9)"><path fill="#179151" d="M 404.996094 90.363281 C 231.226562 90.363281 90.363281 231.226562 90.363281 404.996094 C 90.363281 578.75 231.226562 719.613281 404.996094 719.613281 C 578.746094 719.613281 719.613281 578.75 719.613281 404.996094 C 719.613281 231.226562 578.746094 90.363281 404.996094 90.363281 Z M 331.539062 514.664062 C 311.527344 514.664062 295.328125 498.4375 295.328125 478.410156 C 295.328125 458.414062 311.527344 442.214844 331.539062 442.214844 C 351.550781 442.214844 367.777344 458.414062 367.777344 478.410156 C 367.761719 498.4375 351.550781 514.664062 331.539062 514.664062 Z M 331.539062 367.777344 C 311.527344 367.777344 295.328125 351.554688 295.328125 331.539062 C 295.328125 311.542969 311.539062 295.328125 331.539062 295.328125 C 351.550781 295.328125 367.777344 311.539062 367.777344 331.550781 C 367.777344 351.550781 351.5625 367.777344 331.539062 367.777344 Z M 478.441406 514.664062 C 458.414062 514.664062 442.21875 498.4375 442.21875 478.410156 C 442.21875 458.414062 458.445312 442.214844 478.441406 442.214844 C 498.4375 442.214844 514.664062 458.414062 514.664062 478.410156 C 514.664062 498.4375 498.4375 514.664062 478.441406 514.664062 Z M 478.441406 367.777344 C 458.414062 367.777344 442.21875 351.554688 442.21875 331.539062 C 442.21875 311.542969 458.445312 295.328125 478.441406 295.328125 C 498.4375 295.328125 514.664062 311.539062 514.664062 331.550781 C 514.664062 351.550781 498.4375 367.777344 478.441406 367.777344 Z M 478.441406 367.777344 " fill-opacity="1" fill-rule="nonzero"/></g><path fill="#ffffff" d="M 404.996094 139.867188 C 258.566406 139.867188 139.867188 258.554688 139.867188 404.996094 C 139.867188 551.421875 258.566406 670.125 404.996094 670.125 C 551.421875 670.125 670.125 551.421875 670.125 404.996094 C 670.121094 258.554688 551.421875 139.867188 404.996094 139.867188 Z M 404.996094 624.410156 C 283.816406 624.410156 185.570312 526.179688 185.570312 404.992188 C 185.570312 283.796875 283.816406 185.566406 404.996094 185.566406 C 526.175781 185.566406 624.40625 283.796875 624.40625 404.992188 C 624.40625 526.179688 526.175781 624.410156 404.996094 624.410156 Z M 404.996094 624.410156 " fill-opacity="0.298" fill-rule="nonzero"/></svg>