<svg xmlns="http://www.w3.org/2000/svg" xmlns:xlink="http://www.w3.org/1999/xlink" width="500" zoomAndPan="magnify" viewBox="0 0 375 374.999991" height="500" preserveAspectRatio="xMidYMid meet" version="1.0"><defs><clipPath id="4c54567824"><path d="M 33.164062 57.007812 L 347.414062 57.007812 L 347.414062 371.257812 L 33.164062 371.257812 Z M 33.164062 57.007812 " clip-rule="nonzero"/></clipPath></defs><rect x="-37.5" width="450" fill="#ffffff" y="-37.499999" height="449.999989" fill-opacity="1"/><rect x="-37.5" width="450" fill="#ffffff" y="-37.499999" height="449.999989" fill-opacity="1"/><g clip-path="url(#4c54567824)"><path fill="#1b9df0" d="M 347.414062 214.132812 C 347.414062 216.707031 347.351562 219.273438 347.226562 221.84375 C 347.097656 224.410156 346.910156 226.976562 346.65625 229.535156 C 346.40625 232.09375 346.089844 234.644531 345.714844 237.1875 C 345.335938 239.730469 344.898438 242.265625 344.394531 244.789062 C 343.894531 247.308594 343.332031 249.816406 342.707031 252.3125 C 342.082031 254.804688 341.394531 257.285156 340.648438 259.746094 C 339.902344 262.207031 339.097656 264.644531 338.230469 267.066406 C 337.363281 269.488281 336.4375 271.886719 335.453125 274.261719 C 334.46875 276.636719 333.429688 278.988281 332.328125 281.3125 C 331.230469 283.636719 330.074219 285.933594 328.863281 288.203125 C 327.648438 290.46875 326.382812 292.707031 325.058594 294.910156 C 323.738281 297.117188 322.363281 299.289062 320.933594 301.425781 C 319.503906 303.566406 318.027344 305.667969 316.492188 307.734375 C 314.960938 309.796875 313.378906 311.824219 311.75 313.8125 C 310.117188 315.800781 308.4375 317.746094 306.710938 319.652344 C 304.984375 321.558594 303.210938 323.417969 301.394531 325.238281 C 299.574219 327.054688 297.714844 328.828125 295.808594 330.554688 C 293.902344 332.28125 291.957031 333.960938 289.96875 335.59375 C 287.980469 337.222656 285.953125 338.804688 283.890625 340.335938 C 281.824219 341.871094 279.722656 343.351562 277.582031 344.777344 C 275.445312 346.207031 273.273438 347.582031 271.066406 348.902344 C 268.863281 350.226562 266.625 351.492188 264.359375 352.707031 C 262.089844 353.917969 259.792969 355.074219 257.46875 356.171875 C 255.144531 357.273438 252.792969 358.3125 250.417969 359.296875 C 248.042969 360.28125 245.644531 361.207031 243.222656 362.074219 C 240.800781 362.941406 238.363281 363.746094 235.902344 364.492188 C 233.441406 365.238281 230.960938 365.925781 228.46875 366.550781 C 225.972656 367.175781 223.464844 367.738281 220.941406 368.238281 C 218.421875 368.742188 215.886719 369.179688 213.34375 369.558594 C 210.800781 369.933594 208.25 370.25 205.691406 370.503906 C 203.132812 370.753906 200.566406 370.941406 198 371.070312 C 195.429688 371.195312 192.859375 371.257812 190.289062 371.257812 C 187.71875 371.257812 185.148438 371.195312 182.578125 371.070312 C 180.011719 370.941406 177.449219 370.753906 174.890625 370.503906 C 172.328125 370.25 169.777344 369.933594 167.234375 369.558594 C 164.691406 369.179688 162.160156 368.742188 159.636719 368.238281 C 157.113281 367.738281 154.605469 367.175781 152.113281 366.550781 C 149.617188 365.925781 147.140625 365.238281 144.679688 364.492188 C 142.21875 363.746094 139.777344 362.941406 137.355469 362.074219 C 134.933594 361.207031 132.535156 360.28125 130.160156 359.296875 C 127.785156 358.3125 125.433594 357.273438 123.109375 356.171875 C 120.785156 355.074219 118.488281 353.917969 116.222656 352.707031 C 113.953125 351.492188 111.71875 350.226562 109.511719 348.902344 C 107.304688 347.582031 105.132812 346.207031 102.996094 344.777344 C 100.859375 343.351562 98.757812 341.871094 96.691406 340.335938 C 94.625 338.804688 92.597656 337.222656 90.609375 335.59375 C 88.621094 333.960938 86.675781 332.28125 84.769531 330.554688 C 82.867188 328.828125 81.003906 327.054688 79.1875 325.238281 C 77.367188 323.417969 75.59375 321.558594 73.867188 319.652344 C 72.140625 317.746094 70.460938 315.800781 68.832031 313.8125 C 67.199219 311.824219 65.617188 309.796875 64.085938 307.734375 C 62.554688 305.667969 61.074219 303.566406 59.644531 301.425781 C 58.214844 299.289062 56.839844 297.117188 55.519531 294.910156 C 54.195312 292.707031 52.929688 290.46875 51.71875 288.203125 C 50.503906 285.933594 49.351562 283.636719 48.25 281.3125 C 47.152344 278.988281 46.109375 276.636719 45.125 274.261719 C 44.140625 271.886719 43.214844 269.488281 42.351562 267.066406 C 41.484375 264.644531 40.675781 262.207031 39.929688 259.746094 C 39.183594 257.285156 38.5 254.804688 37.875 252.3125 C 37.25 249.816406 36.683594 247.308594 36.183594 244.789062 C 35.683594 242.265625 35.242188 239.730469 34.867188 237.1875 C 34.488281 234.644531 34.171875 232.09375 33.921875 229.535156 C 33.667969 226.976562 33.480469 224.410156 33.355469 221.84375 C 33.226562 219.273438 33.164062 216.707031 33.164062 214.132812 C 33.164062 211.5625 33.226562 208.992188 33.355469 206.425781 C 33.480469 203.855469 33.667969 201.292969 33.921875 198.734375 C 34.171875 196.171875 34.488281 193.621094 34.867188 191.078125 C 35.242188 188.535156 35.683594 186.003906 36.183594 183.480469 C 36.683594 180.957031 37.25 178.449219 37.875 175.957031 C 38.5 173.460938 39.183594 170.984375 39.929688 168.523438 C 40.675781 166.0625 41.484375 163.621094 42.351562 161.199219 C 43.214844 158.777344 44.140625 156.378906 45.125 154.003906 C 46.109375 151.628906 47.152344 149.277344 48.25 146.953125 C 49.351562 144.628906 50.503906 142.332031 51.71875 140.066406 C 52.929688 137.796875 54.195312 135.5625 55.519531 133.355469 C 56.839844 131.148438 58.214844 128.976562 59.644531 126.839844 C 61.074219 124.703125 62.554688 122.601562 64.085938 120.535156 C 65.617188 118.46875 67.199219 116.441406 68.832031 114.453125 C 70.460938 112.46875 72.140625 110.519531 73.867188 108.613281 C 75.59375 106.710938 77.367188 104.847656 79.1875 103.03125 C 81.003906 101.210938 82.867188 99.4375 84.769531 97.710938 C 86.675781 95.984375 88.621094 94.304688 90.609375 92.675781 C 92.597656 91.042969 94.625 89.460938 96.691406 87.929688 C 98.757812 86.398438 100.859375 84.917969 102.996094 83.488281 C 105.132812 82.058594 107.304688 80.683594 109.511719 79.363281 C 111.71875 78.042969 113.953125 76.773438 116.222656 75.5625 C 118.488281 74.347656 120.785156 73.195312 123.109375 72.09375 C 125.433594 70.996094 127.785156 69.953125 130.160156 68.96875 C 132.535156 67.984375 134.933594 67.058594 137.355469 66.195312 C 139.777344 65.328125 142.21875 64.519531 144.679688 63.773438 C 147.140625 63.027344 149.617188 62.34375 152.113281 61.71875 C 154.605469 61.09375 157.113281 60.53125 159.636719 60.027344 C 162.160156 59.527344 164.691406 59.085938 167.234375 58.710938 C 169.777344 58.332031 172.328125 58.015625 174.890625 57.765625 C 177.449219 57.511719 180.011719 57.324219 182.578125 57.199219 C 185.148438 57.070312 187.71875 57.007812 190.289062 57.007812 C 192.859375 57.007812 195.429688 57.070312 198 57.199219 C 200.566406 57.324219 203.132812 57.511719 205.691406 57.765625 C 208.25 58.015625 210.800781 58.332031 213.34375 58.710938 C 215.886719 59.085938 218.421875 59.527344 220.941406 60.027344 C 223.464844 60.53125 225.972656 61.09375 228.46875 61.71875 C 230.960938 62.34375 233.441406 63.027344 235.902344 63.773438 C 238.363281 64.519531 240.800781 65.328125 243.222656 66.195312 C 245.644531 67.058594 248.042969 67.984375 250.417969 68.96875 C 252.792969 69.953125 255.144531 70.996094 257.46875 72.09375 C 259.792969 73.195312 262.089844 74.347656 264.359375 75.5625 C 266.625 76.773438 268.863281 78.042969 271.066406 79.363281 C 273.273438 80.683594 275.445312 82.058594 277.582031 83.488281 C 279.722656 84.917969 281.824219 86.398438 283.890625 87.929688 C 285.953125 89.460938 287.980469 91.042969 289.96875 92.675781 C 291.957031 94.304688 293.902344 95.984375 295.808594 97.710938 C 297.714844 99.4375 299.574219 101.210938 301.394531 103.03125 C 303.210938 104.847656 304.984375 106.710938 306.710938 108.613281 C 308.4375 110.519531 310.117188 112.46875 311.75 114.453125 C 313.378906 116.441406 314.960938 118.46875 316.492188 120.535156 C 318.027344 122.601562 319.503906 124.703125 320.933594 126.839844 C 322.363281 128.976562 323.738281 131.148438 325.058594 133.355469 C 326.382812 135.5625 327.648438 137.796875 328.863281 140.066406 C 330.074219 142.332031 331.230469 144.628906 332.328125 146.953125 C 333.429688 149.277344 334.46875 151.628906 335.453125 154.003906 C 336.4375 156.378906 337.363281 158.777344 338.230469 161.199219 C 339.097656 163.621094 339.902344 166.0625 340.648438 168.523438 C 341.394531 170.984375 342.082031 173.460938 342.707031 175.957031 C 343.332031 178.449219 343.894531 180.957031 344.394531 183.480469 C 344.898438 186.003906 345.335938 188.535156 345.714844 191.078125 C 346.089844 193.621094 346.40625 196.171875 346.65625 198.734375 C 346.910156 201.292969 347.097656 203.855469 347.226562 206.425781 C 347.351562 208.992188 347.414062 211.5625 347.414062 214.132812 Z M 347.414062 214.132812 " fill-opacity="1" fill-rule="nonzero"/></g><path fill="#ffffff" d="M 161.535156 297.015625 C 231.222656 297.015625 269.324219 239.273438 269.324219 189.230469 C 269.324219 187.578125 269.324219 185.929688 269.246094 184.359375 C 276.628906 179.015625 283.070312 172.339844 288.179688 164.71875 C 281.421875 167.703125 274.117188 169.746094 266.417969 170.6875 C 274.273438 165.976562 280.242188 158.589844 283.070312 149.710938 C 275.765625 154.035156 267.671875 157.175781 259.03125 158.902344 C 252.117188 151.519531 242.296875 146.960938 231.378906 146.960938 C 210.480469 146.960938 193.511719 163.933594 193.511719 184.828125 C 193.511719 187.816406 193.824219 190.722656 194.53125 193.472656 C 163.027344 191.902344 135.140625 176.816406 116.441406 153.875 C 113.21875 159.453125 111.335938 165.976562 111.335938 172.886719 C 111.335938 186.007812 118.011719 197.636719 128.226562 204.390625 C 122.019531 204.234375 116.207031 202.507812 111.097656 199.679688 C 111.097656 199.835938 111.097656 199.992188 111.097656 200.148438 C 111.097656 218.53125 124.140625 233.773438 141.503906 237.308594 C 138.359375 238.171875 134.980469 238.644531 131.523438 238.644531 C 129.089844 238.644531 126.734375 238.410156 124.375 237.9375 C 129.167969 253.023438 143.152344 263.941406 159.730469 264.257812 C 146.765625 274.390625 130.425781 280.441406 112.671875 280.441406 C 109.605469 280.441406 106.621094 280.285156 103.636719 279.890625 C 120.210938 290.730469 140.167969 297.015625 161.535156 297.015625 " fill-opacity="1" fill-rule="nonzero"/></svg>