<svg xmlns="http://www.w3.org/2000/svg" xmlns:xlink="http://www.w3.org/1999/xlink" width="500" zoomAndPan="magnify" viewBox="0 0 375 374.999991" height="500" preserveAspectRatio="xMidYMid meet" version="1.0"><defs><clipPath id="159de191fd"><path d="M 5.960938 5.960938 L 368.960938 5.960938 L 368.960938 368.960938 L 5.960938 368.960938 Z M 5.960938 5.960938 " clip-rule="nonzero"/></clipPath><clipPath id="3e017c91c6"><path d="M 105.804688 123 L 269.304688 123 L 269.304688 255.21875 L 105.804688 255.21875 Z M 105.804688 123 " clip-rule="nonzero"/></clipPath></defs><g clip-path="url(#159de191fd)"><path fill="#213220" d="M 187.460938 368.960938 C 87.1875 368.960938 5.960938 287.175781 5.960938 187.460938 C 5.960938 87.746094 87.1875 5.960938 187.460938 5.960938 C 287.734375 5.960938 368.960938 87.1875 368.960938 187.460938 C 368.960938 287.734375 287.175781 368.960938 187.460938 368.960938 Z M 187.460938 17.164062 C 93.351562 17.164062 17.164062 93.351562 17.164062 187.460938 C 17.164062 281.570312 93.351562 357.757812 187.460938 357.757812 C 281.570312 357.757812 357.757812 281.570312 357.757812 187.460938 C 357.757812 93.351562 281.011719 17.164062 187.460938 17.164062 Z M 187.460938 17.164062 " fill-opacity="1" fill-rule="nonzero"/></g><g clip-path="url(#3e017c91c6)"><path fill="#213220" d="M 252.417969 155.949219 C 252.515625 157.382812 252.515625 158.816406 252.515625 160.261719 C 252.515625 204.359375 218.847656 255.210938 157.289062 255.210938 L 157.289062 255.183594 C 139.101562 255.210938 121.292969 250.019531 105.984375 240.226562 C 108.628906 240.542969 111.289062 240.699219 113.953125 240.707031 C 129.023438 240.71875 143.664062 235.679688 155.519531 226.394531 C 141.195312 226.125 128.640625 216.8125 124.25 203.21875 C 129.269531 204.183594 134.4375 203.988281 139.359375 202.644531 C 123.746094 199.496094 112.511719 185.816406 112.511719 169.933594 C 112.511719 169.789062 112.511719 169.652344 112.511719 169.511719 C 117.164062 172.09375 122.375 173.527344 127.703125 173.6875 C 112.996094 163.894531 108.464844 144.386719 117.347656 129.132812 C 134.339844 149.984375 159.410156 162.65625 186.324219 163.996094 C 183.625 152.40625 187.3125 140.261719 196.007812 132.113281 C 209.488281 119.480469 230.691406 120.125 243.363281 133.5625 C 250.855469 132.085938 258.039062 129.34375 264.613281 125.460938 C 262.117188 133.1875 256.890625 139.75 249.902344 143.914062 C 256.535156 143.136719 263.019531 141.367188 269.125 138.660156 C 264.628906 145.375 258.96875 151.226562 252.417969 155.949219 Z M 252.417969 155.949219 " fill-opacity="1" fill-rule="nonzero"/></g></svg>