<svg xmlns="http://www.w3.org/2000/svg" xmlns:xlink="http://www.w3.org/1999/xlink" width="500" zoomAndPan="magnify" viewBox="0 0 375 374.999991" height="500" preserveAspectRatio="xMidYMid meet" version="1.0"><defs><g/></defs><g fill="#ab9047" fill-opacity="1"><g transform="translate(57.114973, 271.496153)"><g><path d="M 99.707031 -155.65625 L 74.601562 -85.597656 L 37.300781 -189.847656 C 37.0625 -190.804688 36.105469 -191.28125 34.910156 -191.28125 L 2.390625 -191.28125 C 0.476562 -191.28125 -0.476562 -189.847656 0.238281 -188.414062 L 72.210938 -1.195312 C 73.164062 0.476562 76.035156 0.476562 76.753906 -1.195312 L 136.527344 -155.65625 Z M 99.707031 -155.65625 "/></g></g></g><g fill="#ab9047" fill-opacity="1"><g transform="translate(99.643504, 266.657459)"><g><path d="M 150.90625 -2.882812 L 77.855469 -190.796875 C 77.136719 -192.71875 73.773438 -192.71875 73.050781 -190.796875 L 0.242188 -2.882812 C -0.480469 -1.441406 0.480469 0 2.644531 0 L 35.5625 0 C 36.523438 0 37.726562 -0.480469 37.96875 -1.441406 L 75.453125 -108.613281 L 113.421875 -1.441406 C 113.660156 -0.480469 114.863281 0 115.582031 0 L 148.746094 0 C 150.425781 0 151.628906 -1.441406 150.90625 -2.882812 Z M 150.90625 -2.882812 "/></g></g></g><g fill="#179b9e" fill-opacity="1"><g transform="translate(139.502803, 194.405317)"><g><path d="M 180.363281 40.464844 L 105.945312 40.832031 L 191.15625 -29.867188 C 191.972656 -30.417969 192.09375 -31.480469 191.683594 -32.605469 L 180.566406 -63.164062 C 179.910156 -64.960938 178.234375 -65.367188 177.132812 -64.203125 L 25.816406 67.445312 C 24.570312 68.917969 25.550781 71.613281 27.367188 71.714844 L 192.957031 75.066406 Z M 180.363281 40.464844 "/></g></g></g><g fill="#ab9047" fill-opacity="1"><g transform="translate(215.591437, 122.208122)"><g><path d="M 2.765625 0 L 0 -10.515625 L 2.8125 -10.515625 L 3.921875 -5.3125 C 3.972656 -5.132812 4.019531 -4.894531 4.0625 -4.59375 C 4.113281 -4.289062 4.203125 -3.710938 4.328125 -2.859375 C 4.359375 -3.066406 4.421875 -3.472656 4.515625 -4.078125 C 4.617188 -4.679688 4.691406 -5.085938 4.734375 -5.296875 L 5.8125 -10.515625 L 8.53125 -10.515625 L 9.625 -5.3125 C 9.675781 -5.132812 9.722656 -4.894531 9.765625 -4.59375 C 9.816406 -4.289062 9.90625 -3.710938 10.03125 -2.859375 C 10.0625 -3.066406 10.125 -3.472656 10.21875 -4.078125 C 10.320312 -4.679688 10.394531 -5.085938 10.4375 -5.296875 L 11.515625 -10.515625 L 14.25 -10.515625 L 11.5 0 L 8.484375 0 L 7.8125 -3.1875 C 7.707031 -3.726562 7.597656 -4.289062 7.484375 -4.875 C 7.367188 -5.46875 7.25 -6.125 7.125 -6.84375 C 6.945312 -5.851562 6.804688 -5.101562 6.703125 -4.59375 C 6.609375 -4.09375 6.515625 -3.625 6.421875 -3.1875 L 5.75 0 Z M 2.765625 0 "/></g></g></g><g fill="#ab9047" fill-opacity="1"><g transform="translate(238.980639, 122.208122)"><g><path d="M 8.0625 -2.4375 L 8.0625 0 L 0.8125 0 L 0.8125 -10.515625 L 7.90625 -10.515625 L 7.90625 -8.171875 L 3.40625 -8.171875 L 3.40625 -6.421875 L 7.28125 -6.421875 L 7.28125 -4.25 L 3.40625 -4.25 L 3.40625 -2.4375 Z M 8.0625 -2.4375 "/></g></g></g><g fill="#ab9047" fill-opacity="1"><g transform="translate(256.598591, 122.208122)"><g><path d="M 9.015625 -3.09375 C 9.015625 -2.03125 8.703125 -1.25 8.078125 -0.75 C 7.460938 -0.25 6.488281 0 5.15625 0 L 0.8125 0 L 0.8125 -10.515625 L 5.15625 -10.515625 C 6.363281 -10.515625 7.21875 -10.304688 7.71875 -9.890625 C 8.226562 -9.472656 8.484375 -8.769531 8.484375 -7.78125 C 8.484375 -7.15625 8.398438 -6.675781 8.234375 -6.34375 C 8.066406 -6.019531 7.734375 -5.769531 7.234375 -5.59375 C 7.835938 -5.46875 8.285156 -5.195312 8.578125 -4.78125 C 8.867188 -4.363281 9.015625 -3.800781 9.015625 -3.09375 Z M 6.09375 -7.40625 C 6.09375 -7.769531 6.019531 -8.023438 5.875 -8.171875 C 5.738281 -8.316406 5.5 -8.390625 5.15625 -8.390625 L 3.40625 -8.390625 L 3.40625 -6.265625 L 5.15625 -6.265625 C 5.5 -6.265625 5.738281 -6.347656 5.875 -6.515625 C 6.019531 -6.691406 6.09375 -6.988281 6.09375 -7.40625 Z M 6.5 -3.25 C 6.5 -3.65625 6.394531 -3.9375 6.1875 -4.09375 C 5.988281 -4.257812 5.644531 -4.34375 5.15625 -4.34375 L 3.40625 -4.34375 L 3.40625 -2.21875 L 5.15625 -2.21875 C 5.644531 -2.21875 5.988281 -2.296875 6.1875 -2.453125 C 6.394531 -2.609375 6.5 -2.875 6.5 -3.25 Z M 6.5 -3.25 "/></g></g></g><g fill="#000000" fill-opacity="1"><g transform="translate(275.081056, 122.208122)"><g><path d="M 2.921875 0 L 0.484375 0 L 0.484375 -2.3125 L 2.921875 -2.3125 Z M 2.921875 0 "/></g></g></g><g fill="#179b9e" fill-opacity="1"><g transform="translate(287.62869, 122.208122)"><g><path d="M 7.515625 -2.4375 L 7.515625 0 L 0.8125 0 L 0.8125 -10.515625 L 3.40625 -10.515625 L 3.40625 -2.4375 Z M 7.515625 -2.4375 "/></g></g></g><path fill="#000000" d="M 187.5 0 C 83.949219 0 0 83.941406 0 187.5 C 0 291.046875 83.949219 375 187.5 375 C 291.046875 375 375 291.046875 375 187.5 C 375 83.941406 291.046875 0 187.5 0 Z M 309.035156 309.023438 C 293.242188 324.816406 274.863281 337.210938 254.402344 345.863281 C 233.21875 354.824219 210.707031 359.367188 187.5 359.367188 C 164.292969 359.367188 141.78125 354.824219 120.601562 345.863281 C 100.136719 337.210938 81.757812 324.816406 65.964844 309.023438 C 50.175781 293.242188 37.78125 274.851562 29.125 254.390625 C 20.164062 233.207031 15.625 210.707031 15.625 187.5 C 15.625 164.28125 20.164062 141.78125 29.125 120.597656 C 37.78125 100.136719 50.175781 81.746094 65.964844 65.964844 C 81.757812 50.171875 100.136719 37.777344 120.601562 29.113281 C 141.78125 20.164062 164.289062 15.621094 187.5 15.621094 C 210.707031 15.621094 233.21875 20.164062 254.402344 29.113281 C 274.863281 37.777344 293.242188 50.171875 309.035156 65.964844 C 324.828125 81.746094 337.210938 100.136719 345.875 120.597656 C 354.835938 141.78125 359.367188 164.28125 359.367188 187.5 C 359.367188 210.707031 354.835938 233.207031 345.875 254.390625 C 337.210938 274.851562 324.828125 293.242188 309.035156 309.023438 Z M 309.035156 309.023438 " fill-opacity="1" fill-rule="nonzero"/></svg>