<svg xmlns="http://www.w3.org/2000/svg" xmlns:xlink="http://www.w3.org/1999/xlink" width="500" zoomAndPan="magnify" viewBox="0 0 375 374.999991" height="500" preserveAspectRatio="xMidYMid meet" version="1.0"><defs><g/></defs><g fill="#000000" fill-opacity="1"><g transform="translate(4.260282, 310.664931)"><g><path d="M 133.441406 -208.320312 L 99.839844 -114.558594 L 49.921875 -254.082031 C 49.601562 -255.359375 48.320312 -256 46.71875 -256 L 3.199219 -256 C 0.640625 -256 -0.640625 -254.082031 0.320312 -252.160156 L 96.640625 -1.601562 C 97.921875 0.640625 101.761719 0.640625 102.71875 -1.601562 L 182.71875 -208.320312 Z M 133.441406 -208.320312 "/></g></g></g><g fill="#000000" fill-opacity="1"><g transform="translate(61.325226, 301.584611)"><g><path d="M 200.957031 -3.839844 L 103.679688 -254.074219 C 102.71875 -256.636719 98.238281 -256.636719 97.277344 -254.074219 L 0.320312 -3.839844 C -0.640625 -1.921875 0.640625 0 3.519531 0 L 47.359375 0 C 48.640625 0 50.238281 -0.640625 50.558594 -1.921875 L 100.476562 -144.636719 L 151.039062 -1.921875 C 151.359375 -0.640625 152.957031 0 153.917969 0 L 198.078125 0 C 200.316406 0 201.917969 -1.921875 200.957031 -3.839844 Z M 200.957031 -3.839844 "/></g></g></g><g fill="#000000" fill-opacity="1"><g transform="translate(113.600501, 204.723836)"><g><path d="M 241.386719 54.160156 L 141.792969 54.644531 L 255.828125 -39.972656 C 256.921875 -40.710938 257.085938 -42.132812 256.539062 -43.636719 L 241.65625 -84.53125 C 240.78125 -86.9375 238.539062 -87.484375 237.0625 -85.925781 L 34.550781 90.265625 C 32.882812 92.234375 34.195312 95.84375 36.628906 95.980469 L 258.238281 100.464844 Z M 241.386719 54.160156 "/></g></g></g><g fill="#ffaa64" fill-opacity="1"><g transform="translate(215.435592, 107.707327)"><g><path d="M 3.703125 0 L 0 -14.078125 L 3.765625 -14.078125 L 5.25 -7.125 C 5.3125 -6.882812 5.375 -6.5625 5.4375 -6.15625 C 5.507812 -5.75 5.628906 -4.96875 5.796875 -3.8125 C 5.835938 -4.101562 5.921875 -4.648438 6.046875 -5.453125 C 6.171875 -6.265625 6.265625 -6.8125 6.328125 -7.09375 L 7.765625 -14.078125 L 11.40625 -14.078125 L 12.890625 -7.125 C 12.953125 -6.882812 13.015625 -6.5625 13.078125 -6.15625 C 13.148438 -5.75 13.265625 -4.96875 13.421875 -3.8125 C 13.472656 -4.101562 13.5625 -4.648438 13.6875 -5.453125 C 13.8125 -6.265625 13.90625 -6.8125 13.96875 -7.09375 L 15.40625 -14.078125 L 19.0625 -14.078125 L 15.375 0 L 11.359375 0 L 10.46875 -4.265625 C 10.3125 -4.984375 10.160156 -5.738281 10.015625 -6.53125 C 9.867188 -7.320312 9.710938 -8.195312 9.546875 -9.15625 C 9.304688 -7.820312 9.117188 -6.816406 8.984375 -6.140625 C 8.847656 -5.472656 8.71875 -4.847656 8.59375 -4.265625 L 7.703125 0 Z M 3.703125 0 "/></g></g></g><g fill="#ffaa64" fill-opacity="1"><g transform="translate(246.738306, 107.707327)"><g><path d="M 10.78125 -3.25 L 10.78125 0 L 1.078125 0 L 1.078125 -14.078125 L 10.578125 -14.078125 L 10.578125 -10.9375 L 4.5625 -10.9375 L 4.5625 -8.59375 L 9.75 -8.59375 L 9.75 -5.6875 L 4.5625 -5.6875 L 4.5625 -3.25 Z M 10.78125 -3.25 "/></g></g></g><g fill="#ffaa64" fill-opacity="1"><g transform="translate(270.317117, 107.707327)"><g><path d="M 12.0625 -4.125 C 12.0625 -2.707031 11.644531 -1.664062 10.8125 -1 C 9.976562 -0.332031 8.671875 0 6.890625 0 L 1.078125 0 L 1.078125 -14.078125 L 6.890625 -14.078125 C 8.503906 -14.078125 9.648438 -13.796875 10.328125 -13.234375 C 11.015625 -12.671875 11.359375 -11.734375 11.359375 -10.421875 C 11.359375 -9.578125 11.242188 -8.9375 11.015625 -8.5 C 10.796875 -8.0625 10.347656 -7.722656 9.671875 -7.484375 C 10.484375 -7.316406 11.082031 -6.953125 11.46875 -6.390625 C 11.863281 -5.835938 12.0625 -5.082031 12.0625 -4.125 Z M 8.15625 -9.90625 C 8.15625 -10.394531 8.0625 -10.734375 7.875 -10.921875 C 7.6875 -11.117188 7.359375 -11.21875 6.890625 -11.21875 L 4.5625 -11.21875 L 4.5625 -8.375 L 6.890625 -8.375 C 7.359375 -8.375 7.6875 -8.488281 7.875 -8.71875 C 8.0625 -8.957031 8.15625 -9.351562 8.15625 -9.90625 Z M 8.6875 -4.359375 C 8.6875 -4.898438 8.550781 -5.273438 8.28125 -5.484375 C 8.007812 -5.703125 7.546875 -5.8125 6.890625 -5.8125 L 4.5625 -5.8125 L 4.5625 -2.96875 L 6.890625 -2.96875 C 7.546875 -2.96875 8.007812 -3.070312 8.28125 -3.28125 C 8.550781 -3.488281 8.6875 -3.847656 8.6875 -4.359375 Z M 8.6875 -4.359375 "/></g></g></g><g fill="#000000" fill-opacity="1"><g transform="translate(295.049635, 107.707327)"><g><path d="M 3.90625 0 L 0.65625 0 L 0.65625 -3.09375 L 3.90625 -3.09375 Z M 3.90625 0 "/></g></g></g><g fill="#000000" fill-opacity="1"><g transform="translate(311.847559, 107.707327)"><g><path d="M 10.0625 -3.25 L 10.0625 0 L 1.078125 0 L 1.078125 -14.078125 L 4.5625 -14.078125 L 4.5625 -3.25 Z M 10.0625 -3.25 "/></g></g></g></svg>