<svg xmlns="http://www.w3.org/2000/svg" xmlns:xlink="http://www.w3.org/1999/xlink" width="500" zoomAndPan="magnify" viewBox="0 0 375 374.999991" height="500" preserveAspectRatio="xMidYMid meet" version="1.0"><path fill="#ffffff" d="M 187.457031 374.917969 C 84.09375 374.917969 0 290.824219 0 187.457031 C 0 84.09375 84.09375 0 187.457031 0 C 290.824219 0 374.914062 84.09375 374.914062 187.457031 C 374.914062 290.824219 290.824219 374.917969 187.457031 374.917969 Z M 187.457031 18.019531 C 94.03125 18.019531 18.019531 94.03125 18.019531 187.457031 C 18.019531 280.886719 94.03125 356.898438 187.457031 356.898438 C 280.886719 356.898438 356.894531 280.886719 356.894531 187.457031 C 356.894531 94.03125 280.886719 18.019531 187.457031 18.019531 Z M 187.457031 18.019531 " fill-opacity="1" fill-rule="nonzero"/><path fill="#ff0000" d="M 287.300781 137.296875 C 284.898438 128.324219 277.847656 121.273438 268.875 118.875 C 252.628906 114.515625 187.457031 114.515625 187.457031 114.515625 C 187.457031 114.515625 122.285156 114.515625 106.039062 118.875 C 97.066406 121.277344 90.015625 128.324219 87.617188 137.296875 C 83.257812 153.542969 83.257812 187.457031 83.257812 187.457031 C 83.257812 187.457031 83.257812 221.375 87.617188 237.621094 C 90.019531 246.589844 97.066406 253.644531 106.039062 256.042969 C 122.285156 260.402344 187.457031 260.402344 187.457031 260.402344 C 187.457031 260.402344 252.628906 260.402344 268.875 256.042969 C 277.847656 253.640625 284.898438 246.589844 287.300781 237.621094 C 291.660156 221.375 291.660156 187.457031 291.660156 187.457031 C 291.660156 187.457031 291.640625 153.542969 287.300781 137.296875 Z M 287.300781 137.296875 " fill-opacity="1" fill-rule="nonzero"/><path fill="#ffffff" d="M 166.597656 218.71875 L 220.738281 187.460938 L 166.597656 156.203125 Z M 166.597656 218.71875 " fill-opacity="1" fill-rule="nonzero"/></svg>